<?xml version="1.0" encoding="UTF-8" standalone="no"?> <!-- Created with Vectornator for iOS (http://vectornator.io/) --><!DOCTYPE svg PUBLIC "-//W3C//DTD SVG 1.1//EN" "http://www.w3.org/Graphics/SVG/1.1/DTD/svg11.dtd">
<svg height="100%" style="fill-rule:nonzero;clip-rule:evenodd;stroke-linecap:round;stroke-linejoin:round;" xmlns:xlink="http://www.w3.org/1999/xlink" xmlns="http://www.w3.org/2000/svg" xml:space="preserve" width="100%" xmlns:vectornator="http://vectornator.io" version="1.1" viewBox="0 0 800 500">
<metadata>
<vectornator:setting key="DimensionsVisible" value="1"/>
<vectornator:setting key="PencilOnly" value="0"/>
<vectornator:setting key="SnapToPoints" value="0"/>
<vectornator:setting key="OutlineMode" value="0"/>
<vectornator:setting key="CMYKEnabledKey" value="0"/>
<vectornator:setting key="RulersVisible" value="1"/>
<vectornator:setting key="SnapToEdges" value="0"/>
<vectornator:setting key="GuidesVisible" value="1"/>
<vectornator:setting key="DisplayWhiteBackground" value="0"/>
<vectornator:setting key="doHistoryDisabled" value="0"/>
<vectornator:setting key="SnapToGuides" value="1"/>
<vectornator:setting key="TimeLapseWatermarkDisabled" value="0"/>
<vectornator:setting key="Units" value="Pixels"/>
<vectornator:setting key="DynamicGuides" value="0"/>
<vectornator:setting key="IsolateActiveLayer" value="0"/>
<vectornator:setting key="SnapToGrid" value="0"/>
</metadata>
<defs/>
<g id="Layer 1" vectornator:layerName="Layer 1">
<path d="M414.584+439.387C411.448+439.415+412.152+421.155+409.515+421.155C398.018+421.155+393.676+421.701+393.676+421.701L393.944+448.759C393.955+449.862+394.858+450.756+395.961+450.756L429.639+450.756C435.334+450.756+436.421+449.173+432.068+447.221C432.068+447.221+414.593+439.387+414.584+439.387Z" opacity="1" fill="#000000"/>
<path d="M340.3+439.802C343.436+439.829+342.732+421.569+345.369+421.569C356.866+421.569+361.208+422.115+361.208+422.115L360.94+449.173C360.929+450.276+360.026+451.17+358.923+451.17L325.245+451.17C319.55+451.17+318.463+449.588+322.816+447.636C322.816+447.636+340.291+439.801+340.3+439.802Z" opacity="1" fill="#000000"/>
<g opacity="1">
<path d="M374.032+257.574L376.607+257.574C392.938+257.574+406.177+270.957+406.177+287.465L406.177+287.465C406.177+303.974+392.938+317.357+376.607+317.357L374.032+317.357C357.7+317.357+344.461+303.974+344.461+287.465L344.461+287.465C344.461+270.957+357.7+257.574+374.032+257.574Z" opacity="1" fill="#3f88ab"/>
<path d="M345.38+279.044L381.668+285.413L362.762+430.088L326.474+423.72L345.38+279.044Z" opacity="1" fill="#3f88ab"/>
<path d="M405.195+278.017L369.016+284.98L390.294+429.326L426.473+422.363L405.195+278.017Z" opacity="1" fill="#3f88ab"/>
</g>
<g opacity="1">
<path d="M291.841+155.307L291.841+155.307C295.774+155.466+298.304+161.742+298.76+157.564L294.314+136.959L297.992+133.136L299.235+130.642C302.633+119.739+298.559+115.305+295.954+125.018L290.408+125.198C286.475+125.04+285.527+126.385+285.071+130.563L284.996+135.173L283.229+146.655L284.292+155.13C283.836+159.308+287.908+155.149+291.841+155.307Z" opacity="1" fill="#b8743f"/>
<path d="M300.605+138.766L281.096+143.303C278.795+143.784+281.442+150.554+282.474+161.596C282.474+161.596+287.057+182.036+289.358+181.555L301.285+182.399C303.586+181.918+302.146+157.481+302.146+157.481C301.113+146.439+302.907+138.284+300.605+138.766Z" opacity="1" fill="#22646e"/>
<path d="M346.294+172.181L404.429+172.732C409.655+172.732+413.908+184.744+413.908+189.969L408.204+237.514C408.204+242.739+403.999+245.327+391.58+247.802C379.161+250.277+370.304+250.155+358.528+247.413C346.751+244.671+344.474+242.059+344.474+236.833L336.776+189.969C336.776+184.744+341.068+172.181+346.294+172.181Z" opacity="1" fill="#22646e"/>
<path stroke="#000000" stroke-width="2.1" d="M374.706+173.588L375.31+187.164" fill="none" stroke-linecap="round" opacity="1" stroke-linejoin="round"/>
<path d="M406.344+192.298L397.719+183.666C395.969+181.914+401.128+175.081+409.244+168.404L424.857+155.56C432.972+148.883+452.371+135.591+454.121+137.343L461.247+150.379C462.998+152.131+447.937+163.86+439.821+170.537L424.208+183.381C416.093+190.058+408.095+194.05+406.344+192.298Z" opacity="1" fill="#22646e"/>
<path stroke="#000000" stroke-width="2.09192" d="M413.712+190.879L415.2+189.648L460.579+152.116" fill="none" stroke-linecap="round" opacity="1" stroke-linejoin="round"/>
<path d="M453.66+127.229L453.66+127.229C449.803+128.017+448.315+134.618+447.193+130.568L448.27+109.517L444.025+106.334L442.398+104.072C437.291+93.8571+440.6+88.826+444.733+97.9947L450.234+97.2806C454.091+96.4922+455.243+97.6675+456.365+101.718L457.179+106.257L460.769+117.305L461.082+125.841C462.204+129.891+457.517+126.44+453.66+127.229Z" opacity="1" fill="#b8743f"/>
<path d="M442.351+112.311L462.336+113.653C464.684+113.759+463.16+120.866+463.916+131.93C463.916+131.93+462.678+152.841+460.329+152.736L448.693+155.487C446.344+155.381+443.838+131.031+443.838+131.031C443.083+119.966+440.002+112.206+442.351+112.311Z" opacity="1" fill="#22646e"/>
<path stroke="#000000" stroke-width="2.09192" d="M452.816+145.11L445.023+141.337" fill="none" stroke-linecap="round" opacity="1" stroke-linejoin="round"/>
<path d="M356.466+191.623L360.036+179.954C360.761+177.586+352.999+173.971+342.7+171.879L322.887+167.856C312.588+165.764+289.222+163.121+288.497+165.49L288.316+180.345C287.592+182.713+306.394+186.01+316.693+188.101L336.506+192.125C346.805+194.216+355.741+193.992+356.466+191.623Z" opacity="1" fill="#22646e"/>
<path stroke="#000000" stroke-width="2.09192" d="M336.975+192.209L335.483+191.869L289.968+181.501" fill="none" stroke-linecap="round" opacity="1" stroke-linejoin="round"/>
<path stroke="#000000" stroke-width="2.09192" d="M294.183+172.186L301.117+165.266" fill="none" stroke-linecap="round" opacity="1" stroke-linejoin="round"/>
<path d="M374.247+128.973L374.247+128.973C365.078+128.973+357.646+136.307+357.646+145.354L357.646+147.187C357.646+156.233+365.078+163.567+374.247+163.567L374.247+163.567C383.416+163.567+390.849+156.233+390.849+147.187L390.849+145.354C390.849+136.307+383.416+128.973+374.247+128.973Z" opacity="1" fill="#b8743f"/>
<path d="M358.023+133.841C359.939+128.949+368.997+125.631+374.043+125.631C379.089+125.631+391.418+131.269+391.418+135.156C391.418+135.642+393.237+136.753+390.589+139.042C387.94+141.332+388.639+137.722+387.743+137.161C386.581+136.432+385.975+140.079+384.369+140.512C382.763+140.945+376.606+139.705+374.043+139.705C371.144+139.705+359.214+146.83+357.761+144.33C356.308+141.831+355.977+144.585+355.209+144.576C353.933+144.56+353.839+142.315+353.175+142.073C349.693+140.799+357.781+134.459+358.023+133.841Z" opacity="1" fill="#261202"/>
</g>
<path stroke="#000000" stroke-width="1.09192" d="M418.171+62.8456L437.176+62.8456C442.172+62.8456+446.223+67.7487+446.223+73.7971L446.223+73.7971C446.223+79.8454+442.172+84.7485+437.176+84.7485L418.171+84.7485C415.947+84.7485+411.83+90.8547+410.255+89.2444C408.945+87.9048+414.931+82.4967+412.413+79.7259C410.844+78.0004+409.123+74.9156+409.123+73.7971L409.123+73.7971C409.123+67.7487+413.174+62.8456+418.171+62.8456Z" fill="#ffe0ce" stroke-linecap="round" opacity="1" stroke-linejoin="round"/>
<path stroke="#000000" stroke-width="1.09192" d="M311.357+79.3029L292.352+79.3029C287.356+79.3029+283.305+84.2061+283.305+90.2544L283.305+90.2544C283.305+96.3028+287.356+101.206+292.352+101.206L311.357+101.206C313.581+101.206+318.227+107.964+319.802+106.354C321.113+105.014+314.597+98.954+317.115+96.1833C318.684+94.4577+320.405+91.3729+320.405+90.2544L320.405+90.2544C320.405+84.2061+316.354+79.3029+311.357+79.3029Z" fill="#ffe0ce" stroke-linecap="round" opacity="1" stroke-linejoin="round"/>
<path stroke="#000000" stroke-width="1.09192" d="M367.097+47.7878L348.092+47.7878C343.095+47.7878+339.044+52.6909+339.044+58.7392L339.044+58.7392C339.044+64.7876+343.095+69.6907+348.092+69.6907L359.016+69.9282C359.786+69.9449+360.506+70.2406+360.623+70.5886C360.623+70.5886+362.934+77.1456+362.954+77.1735C363.659+78.1435+365.457+69.6678+365.457+69.6678C365.457+69.6678+371.331+69.0078+373.849+66.2371C375.417+64.5116+376.144+59.8578+376.144+58.7392L376.144+58.7392C376.144+52.6909+372.094+47.7878+367.097+47.7878Z" fill="#ffe0ce" stroke-linecap="round" opacity="1" stroke-linejoin="round"/>
</g>
</svg>
