<?xml version="1.0" encoding="UTF-8" standalone="no"?> <!-- Created with Vectornator for iOS (http://vectornator.io/) --><!DOCTYPE svg PUBLIC "-//W3C//DTD SVG 1.1//EN" "http://www.w3.org/Graphics/SVG/1.1/DTD/svg11.dtd">
<svg height="100%" style="fill-rule:nonzero;clip-rule:evenodd;stroke-linecap:round;stroke-linejoin:round;" xmlns:xlink="http://www.w3.org/1999/xlink" xmlns="http://www.w3.org/2000/svg" xml:space="preserve" width="100%" xmlns:vectornator="http://vectornator.io" version="1.1" viewBox="0 0 256 144">
<metadata>
<vectornator:setting key="DimensionsVisible" value="1"/>
<vectornator:setting key="PencilOnly" value="0"/>
<vectornator:setting key="SnapToPoints" value="0"/>
<vectornator:setting key="OutlineMode" value="0"/>
<vectornator:setting key="CMYKEnabledKey" value="0"/>
<vectornator:setting key="RulersVisible" value="1"/>
<vectornator:setting key="SnapToEdges" value="0"/>
<vectornator:setting key="GuidesVisible" value="1"/>
<vectornator:setting key="DisplayWhiteBackground" value="0"/>
<vectornator:setting key="doHistoryDisabled" value="0"/>
<vectornator:setting key="SnapToGuides" value="1"/>
<vectornator:setting key="TimeLapseWatermarkDisabled" value="0"/>
<vectornator:setting key="Units" value="Points"/>
<vectornator:setting key="DynamicGuides" value="0"/>
<vectornator:setting key="IsolateActiveLayer" value="0"/>
<vectornator:setting key="SnapToGrid" value="0"/>
</metadata>
<defs/>
<g id="Layer 2" vectornator:layerName="Layer 2">
<path stroke="#000000" stroke-width="0.3" d="M37.3814+49.4448C37.3814+49.4448+37.8249+39.7442+34.0777+36.7899C30.3305+33.8355+24.9365+35.2155+21.7892+36.6109C18.6419+38.0063+13.465+41.8528+13.1888+46.5221C12.0533+65.7193+26.3447+58.1678+28.2217+66.3553C29.5969+72.3538+16.504+66.629+16.504+66.629L13.7634+75.1489C13.7634+75.1489+20.1972+77.4379+26.6588+77.1118C32.9775+76.793+39.3223+73.9471+39.7406+66.2977C39.9841+61.8436+37.1571+56.9895+33.8962+55.1681C29.4127+52.6637+23.4189+51.2763+23.632+47.6427C23.7504+45.622+24.0505+43.3673+25.8043+43.2276C29.2656+42.9517+28.0725+49.5003+28.1609+49.5085C28.4135+49.5319+37.3814+49.4448+37.3814+49.4448Z" fill="#ff4351" stroke-linecap="round" opacity="1" stroke-linejoin="round"/>
<path stroke="#000000" stroke-width="0.3" d="M64.875+30.9062C64.0374+30.9415+63.1759+31.0666+62.3125+31.2812C56.9579+32.6122+48.9063+35.0625+48.9062+35.0625L51.4062+73.25L61.0625+72.7188C61.0625+72.7188+60.5625+66.8709+60.5625+60.9688C60.5625+60.2427+67.4574+59.5453+72.0625+55.4688C76.4686+51.5684+76.6993+47.1322+76.2188+41.1562C75.6987+34.6889+70.7379+30.6592+64.875+30.9062ZM66.3402+42.819C66.6231+44.196+66.8603+46.2121+65.0049+48.2067C63.1495+50.2012+59.29+50.903+59.29+50.903L58.6673+41.385C58.6673+41.385+61.5961+39.9993+63.5497+40.3436C65.5033+40.688+66.1851+42.064+66.3402+42.819Z" fill="#ff4351" stroke-linecap="round" opacity="1" stroke-linejoin="round"/>
<path stroke="#000000" stroke-width="0.3" d="M88.2119+28.468C88.2119+28.468+95.1286+27.1527+101.869+26.0482C108.609+24.9436+114.902+23.9987+114.902+23.9987L115.754+32.9272L98.9786+36.9241L98.8115+42.6729L112.745+39.7864L113.484+48.3822L100.079+51.3939L100.471+56.8549L117.485+54.1704L118.418+63.7325C118.418+63.7325+111.721+65.2865+104.949+66.4434C98.6373+67.5217+92.2487+68.2083+91.4732+68.2083C91.4549+68.2083+90.0469+57.9673+89.1598+47.9238C88.2898+38.0735+88.2119+28.468+88.2119+28.468Z" fill="#ff4351" stroke-linecap="round" opacity="1" stroke-linejoin="round"/>
<path stroke="#000000" stroke-width="0.3" d="M126.753+23.3878C126.753+23.3878+133.67+22.0725+140.411+20.9679C147.151+19.8634+153.443+18.9184+153.443+18.9184L154.295+27.847L137.52+31.8438L137.353+37.5926L151.287+34.7062L152.026+43.302L138.621+46.3137L139.013+51.7746L156.027+49.0901L156.96+58.6522C156.96+58.6522+150.263+60.2063+143.491+61.3631C137.179+62.4414+130.79+63.128+130.015+63.128C129.996+63.128+128.588+52.887+127.701+42.8435C126.831+32.9932+126.753+23.3878+126.753+23.3878Z" fill="#ff4351" stroke-linecap="round" opacity="1" stroke-linejoin="round"/>
<path stroke="#000000" stroke-width="0.3" d="M195.165+30.8533C195.165+30.8533+196.843+20.2441+191.289+15.9473C187.954+13.3664+181.008+13.4898+176.688+16.0578C166.28+22.2453+165.102+40.7535+170.362+51.1013C173.077+56.4432+182.529+57.4498+187.773+54.5472C194.436+50.8597+196.391+41.7222+196.391+41.7222L190.888+37.62C190.888+37.62+185.566+50.891+181.23+46.5553C176.718+42.043+178.095+21.236+184.254+22.9161C185.864+23.3552+184.741+30.9147+184.741+30.9147L195.165+30.8533Z" fill="#ff4351" stroke-linecap="round" opacity="1" stroke-linejoin="round"/>
<path stroke="#000000" stroke-width="0.3" d="M207.26+11.0952L217.216+9.74565L218.035+25.0107C218.035+25.0107+220.093+24.7472+222.135+24.5287C224.177+24.3102+225.919+23.8097+225.919+23.8097L225.274+8.37236L235.459+7.38938L239.601+47.9804C239.601+47.9804+236.677+48.5092+233.851+48.7943C231.026+49.0795+228.3+49.1211+228.3+49.1211L227.181+32.9474C227.181+32.9474+225.345+33.1123+223.434+33.6354C221.523+34.1584+219.536+35.0397+219.536+35.0397L220.974+50.5638C220.974+50.5638+218.141+51.147+215.417+51.4856C212.694+51.8242+210.08+51.9181+210.08+51.9181L207.26+11.0952Z" fill="#ff4351" stroke-linecap="round" opacity="1" stroke-linejoin="round"/>
<path stroke="#000000" stroke-width="0.3" d="M55.3438+88.5625C52.2484+88.398+48.7583+89.1057+44.0625+89.75C36.6155+90.7718+25.9436+91.8489+25.9062+94.5C25.8745+96.7569+28.351+96.7837+28.2812+98.4688C27.8569+108.721+25.7188+131.406+25.7188+131.406C25.7187+131.406+19.6895+135.978+24.4062+136.438C29.123+136.897+38.1976+134.819+44.5938+133.25C50.9899+131.681+63.0165+127.685+66.5312+118.656C69.1656+111.889+70.7238+97.9787+64.3438+92.5C61.1537+89.7607+58.4391+88.727+55.3438+88.5625ZM52.211+110.879C49.9756+129.838+41.6484+127.964+41.6484+127.964L43.9457+95.4999C43.9457+95.4999+47.41+94.506+49.4837+95.403C51.1391+96.1191+53.3041+101.607+52.211+110.879Z" fill="#717171" stroke-linecap="round" opacity="1" stroke-linejoin="round"/>
<path stroke="#000000" stroke-width="0.3" d="M84.3543+98.167C84.3543+98.167+81.1856+96.9393+81.2817+95.2384C81.3844+93.4224+88.1817+90.029+93.4167+89.5026C97.0462+89.1376+101.372+90.2751+99.7517+99.0725C99.0242+103.022+98.8561+112.415+98.6595+118.308C98.605+119.941+100.564+118.467+100.695+121.234C100.729+121.967+96.8375+122.91+92.1184+123.933C88.5698+124.703+85.4581+125.012+82.1694+125.463C78.8808+125.913+79.6673+124.806+79.5653+124.356C79.3303+123.318+82.2455+121.865+82.4446+120.211C83.2848+113.226+84.3543+98.167+84.3543+98.167Z" fill="#717171" stroke-linecap="round" opacity="1" stroke-linejoin="round"/>
<path stroke="#000000" stroke-width="0.3" d="M100.178+81.6699C99.6456+84.7266+96.4737+87.6899+93.2935+87.1363L93.2935+87.1363C90.1134+86.5827+88.0056+83.4325+88.5377+80.3758C89.0698+77.3191+92.2418+74.3559+95.4219+74.9094L95.4219+74.9094C98.6021+75.463+100.71+78.6132+100.178+81.6699Z" fill="#717171" stroke-linecap="round" opacity="1" stroke-linejoin="round"/>
<path stroke="#000000" stroke-width="0.3" d="M138.906+81.5C134.283+81.2421+127.49+82.251+122.969+84.0625C120.852+84.9106+117.507+87.6477+117.375+90.1875C117.243+92.7273+118.092+94.7918+121.312+95.125C124.901+95.4963+129.5+95.4769+130.5+91.4688C131.27+88.3813+130.569+86.5968+132.75+86.625C135.055+86.6548+133.174+96.109+133.688+97.3125C133.753+97.4651+115.128+94.2162+112.719+106.562C110.954+115.603+118.044+118.467+122.781+118.094C130.537+117.482+133.375+111.312+133.375+111.312C133.375+111.313+135.198+113.097+136.719+113.875C139.757+115.429+143.931+115.493+147.312+112.781C150.909+109.897+153.047+107.466+151.469+104.188C150.452+102.076+149.429+106.193+148.5+105.5C148.221+105.292+148.271+104.324+148.281+104.156C149.244+88.3433+148.914+84.8796+142.625+82.1875C141.725+81.8024+140.447+81.5859+138.906+81.5ZM131.534+107.216C131.032+108.485+129.908+108.968+128.818+108.657C127.729+108.346+127.273+106.439+127.28+105.779C127.301+104.009+128.722+100.412+132.335+101.699C133.186+102.003+132.26+105.381+131.534+107.216Z" fill="#717171" stroke-linecap="round" opacity="1" stroke-linejoin="round"/>
<path stroke="#000000" stroke-width="0.3" d="M164.117+79.2333C163.481+76.4777+174.829+72.5652+177.235+72.7164C180.81+72.9409+181.373+76.5218+181.972+76.4735C182.532+76.4284+184.213+71.2968+188.664+70.4172C194.546+69.2545+198.306+73.3563+198.351+77.7595C198.397+82.2558+195.13+85.4733+191.395+85.4387C187.79+85.4052+184.41+80.4246+183.603+80.4943C182.056+80.6278+180.786+101.514+180.786+101.514C180.786+101.514+184.623+103.677+184.51+104.728C184.295+106.732+177.059+107.758+173.981+108.339C171.025+108.897+162.752+110.818+162.246+108.983C161.851+107.552+163.466+106.975+164.821+104.779C165.331+103.954+166.975+82.202+166.975+82.202C166.975+82.202+164.385+80.3942+164.117+79.2333Z" fill="#717171" stroke-linecap="round" opacity="1" stroke-linejoin="round"/>
<path stroke="#000000" stroke-width="0.3" d="M210.914+77.5502C210.182+76.4089+208.619+78.4749+208.123+78.2517C206.782+77.6478+207.472+72.9221+209.487+70.1728C212.398+66.2003+217.728+63.3938+222.179+64.8045C227.323+66.4349+231.796+87.9934+233.748+87.9219C235.309+87.8647+238.043+79.8071+237.853+78.6669C237.721+77.8711+233.29+77.2433+232.185+70.1645C231.53+65.9692+234.263+61.1019+237.995+61.2534C250.877+61.7764+242.731+87.7211+239.734+93.3754C232.557+106.913+222.128+112.533+215.639+112.274C210.454+112.067+207.262+109.812+206.618+106.735C206.067+104.103+207.164+99.0872+211.346+99.0916C217.931+99.0986+217.716+104.812+219.575+104.851C220.713+104.874+223.451+103.722+225.446+100.113C225.812+99.451+221.007+100.776+218.962+97.4403C216.063+92.7117+213.759+81.9845+210.914+77.5502Z" fill="#717171" stroke-linecap="round" opacity="1" stroke-linejoin="round"/>
</g>
</svg>
