<?xml version="1.0" encoding="UTF-8" standalone="no"?> <!-- Created with Vectornator for iOS (http://vectornator.io/) --><!DOCTYPE svg PUBLIC "-//W3C//DTD SVG 1.1//EN" "http://www.w3.org/Graphics/SVG/1.1/DTD/svg11.dtd">
<svg height="100%" style="fill-rule:nonzero;clip-rule:evenodd;stroke-linecap:round;stroke-linejoin:round;" xmlns:xlink="http://www.w3.org/1999/xlink" xmlns="http://www.w3.org/2000/svg" xml:space="preserve" width="100%" xmlns:vectornator="http://vectornator.io" version="1.1" viewBox="0 0 800 500">
<metadata>
<vectornator:setting key="DimensionsVisible" value="0"/>
<vectornator:setting key="PencilOnly" value="0"/>
<vectornator:setting key="SnapToPoints" value="0"/>
<vectornator:setting key="OutlineMode" value="0"/>
<vectornator:setting key="CMYKEnabledKey" value="0"/>
<vectornator:setting key="RulersVisible" value="1"/>
<vectornator:setting key="SnapToEdges" value="0"/>
<vectornator:setting key="GuidesVisible" value="1"/>
<vectornator:setting key="DisplayWhiteBackground" value="0"/>
<vectornator:setting key="doHistoryDisabled" value="0"/>
<vectornator:setting key="SnapToGuides" value="1"/>
<vectornator:setting key="TimeLapseWatermarkDisabled" value="0"/>
<vectornator:setting key="Units" value="Pixels"/>
<vectornator:setting key="DynamicGuides" value="0"/>
<vectornator:setting key="IsolateActiveLayer" value="0"/>
<vectornator:setting key="SnapToGrid" value="0"/>
</metadata>
<defs/>
<g id="Layer 1" vectornator:layerName="Layer 1">
<g opacity="1">
<path stroke="#000000" stroke-width="0.1" d="M642.669+368.867L662.512+397.953L682.924+384.028L663.082+354.941L660.109+357.08C660.433+357.604+660.894+358.231+660.814+358.847C660.726+359.525+660.015+360.102+659.457+360.483C658.019+361.464+656.982+362.218+654.365+363.988C651.748+365.759+650.471+366.554+648.989+367.566C648.441+367.94+647.855+368.44+647.248+368.321C646.641+368.202+646.298+367.256+645.92+366.701C645.909+366.686+642.669+368.867+642.669+368.867Z" fill="#ffe0ce" stroke-linecap="round" opacity="1" stroke-linejoin="round"/>
<path stroke="#000000" stroke-width="0.1" d="M650.99+359.519C650.219+360.056+650.251+361.216+651.005+361.58C651.103+361.627+650.391+362.668+649.447+363.426C648.552+364.144+647.421+364.586+647.421+364.586C646.728+365.059+646.698+365.959+647.049+366.586C647.31+367.052+647.427+367.445+647.771+367.39C648.116+367.335+648.488+367.007+648.887+366.735L658.891+359.91C659.321+359.617+659.866+359.306+659.902+358.869C659.924+358.601+659.572+358.203+659.418+357.977C659.013+357.383+658.119+357.288+657.426+357.761C657.426+357.761+656.657+358.764+655.596+359.396C654.411+360.103+652.952+360.441+652.937+360.308C652.829+359.358+651.761+358.982+650.99+359.519ZM651.208+360.052C651.415+359.823+651.766+359.81+651.996+360.02C652.007+360.03+652.031+360.052+652.042+360.062C652.272+360.273+652.289+360.626+652.083+360.854C651.876+361.083+651.519+361.1+651.289+360.889C651.278+360.879+651.259+360.853+651.248+360.843C651.018+360.633+651.001+360.28+651.208+360.052Z" fill="#484848" stroke-linecap="round" opacity="1" stroke-linejoin="round"/>
<path stroke="#000000" stroke-width="0.1" d="M646.354+371.49L661.632+361.074L663.498+362.817L665.339+360.938L680.946+383.771L663.057+395.974L646.354+371.49Z" fill="#fdf1eb" stroke-linecap="round" opacity="1" stroke-linejoin="round"/>
<path stroke="#000000" stroke-width="0.1" d="M649.763+374.543L652.673+372.558L654.855+375.756L651.945+377.741L649.763+374.543Z" fill="#ffe0ce" stroke-linecap="round" opacity="1" stroke-linejoin="round"/>
<path stroke="#000000" stroke-width="0.1" d="M655.572+372.151L662.865+367.244" fill="none" stroke-linecap="round" opacity="1" stroke-linejoin="round"/>
<path stroke="#000000" stroke-width="0.1" d="M656.389+373.148L666.125+366.655" fill="none" stroke-linecap="round" opacity="1" stroke-linejoin="round"/>
<path stroke="#000000" stroke-width="0.1" d="M655.238+378.584L658.148+376.599L660.33+379.797L657.42+381.782L655.238+378.584Z" fill="#ffe0ce" stroke-linecap="round" opacity="1" stroke-linejoin="round"/>
<path stroke="#000000" stroke-width="0.1" d="M660.49+376.103L669.711+369.894" fill="none" stroke-linecap="round" opacity="1" stroke-linejoin="round"/>
<path stroke="#000000" stroke-width="0.1" d="M661.156+377.155L669.203+371.815" fill="none" stroke-linecap="round" opacity="1" stroke-linejoin="round"/>
<path stroke="#000000" stroke-width="0.1" d="M656.901+385.014L659.811+383.029L661.992+386.227L659.083+388.212L656.901+385.014Z" fill="#ffe0ce" stroke-linecap="round" opacity="1" stroke-linejoin="round"/>
<path stroke="#000000" stroke-width="0.1" d="M661.881+388.519L664.79+386.534L666.972+389.732L664.062+391.717L661.881+388.519Z" fill="#ffe0ce" stroke-linecap="round" opacity="1" stroke-linejoin="round"/>
<path stroke="#000000" stroke-width="0.1" d="M661.818+382.583L671.039+376.375" fill="none" stroke-linecap="round" opacity="1" stroke-linejoin="round"/>
<path stroke="#000000" stroke-width="0.1" d="M662.648+383.861L666.541+381.234" fill="none" stroke-linecap="round" opacity="1" stroke-linejoin="round"/>
<path stroke="#000000" stroke-width="0.1" d="M667.115+386.549L671.789+383.423" fill="none" stroke-linecap="round" opacity="1" stroke-linejoin="round"/>
<path stroke="#000000" stroke-width="0.1" d="M667.789+387.533L677.01+381.324" fill="none" stroke-linecap="round" opacity="1" stroke-linejoin="round"/>
<path stroke="#000000" stroke-width="0.1" d="M667.853+380.38L671.746+377.752" fill="none" stroke-linecap="round" opacity="1" stroke-linejoin="round"/>
<path stroke="#000000" stroke-width="0.1" d="M661.612+361.085L665.244+360.9" fill="none" stroke-linecap="round" opacity="1" stroke-linejoin="round"/>
</g>
<g opacity="1">
<path stroke="#000000" stroke-width="0.1" d="M164.971+335.238C164.971+304.823+190.228+280.167+221.385+280.167C252.542+280.167+277.799+304.823+277.799+335.238C277.799+365.652+252.542+390.308+221.385+390.308C190.228+390.308+164.971+365.652+164.971+335.238Z" fill="#d84343" stroke-linecap="round" opacity="1" stroke-linejoin="round"/>
<path stroke="#000000" stroke-width="0.1" d="M236.421+282.462C227.846+308.13+228.204+308.897+219.629+334.565L264.558+340.013L276.927+341.513C278.352+336.274+277.568+326.619+275.739+320.12C270.675+302.121+254.113+285.914+236.421+282.462Z" fill="#05d7b7" stroke-linecap="round" opacity="1" stroke-linejoin="round"/>
<g opacity="1">
<path stroke="#000000" stroke-width="0.415093" d="M236.343+284.06L220.216+333.507" fill="#662f2f" stroke-linecap="round" opacity="1" stroke-linejoin="round"/>
<path stroke="#000000" stroke-width="0.415093" d="M276.701+341.848L219.341+334.866" fill="#662f2f" stroke-linecap="round" opacity="1" stroke-linejoin="round"/>
</g>
<path stroke="#000000" stroke-width="0.1" d="M203.813+335.216C203.813+324.904+212.328+316.545+222.832+316.545C233.335+316.545+241.85+324.904+241.85+335.216C241.85+345.529+233.335+353.888+222.832+353.888C212.328+353.888+203.813+345.529+203.813+335.216Z" fill="#ffffff" stroke-linecap="round" opacity="1" stroke-linejoin="round"/>
</g>
<g opacity="1">
<path stroke="#000000" stroke-width="2.97268" d="M174.644+225.999C174.644+225.999+182.072+178.223+199.248+143.721C216.423+109.22+242.859+87.8979+242.859+87.8979" fill="none" stroke-linecap="round" opacity="1" stroke-linejoin="round"/>
<path stroke="#000000" stroke-width="2.97268" d="M251.013+102.463L246.893+95.8128L243.287+89.9926L239.96+84.621L235.562+77.5224L248.81+77.3194L262.058+77.1163L256.536+89.7895L251.013+102.463Z" fill="#000000" stroke-linecap="round" opacity="1" stroke-linejoin="round"/>
</g>
<g opacity="1">
<path stroke="#000000" stroke-width="2.97268" d="M534.683+68.3439C534.683+68.3439+572.314+98.7028+593.573+130.849C614.833+162.995+620.047+196.556+620.047+196.556" fill="none" stroke-linecap="round" opacity="1" stroke-linejoin="round"/>
<path stroke="#000000" stroke-width="2.97268" d="M603.357+196.318L611.176+196.083L618.019+195.877L624.335+195.687L632.682+195.437L626.222+207.005L619.762+218.573L611.559+207.446L603.357+196.318Z" fill="#000000" stroke-linecap="round" opacity="1" stroke-linejoin="round"/>
</g>
<g opacity="1">
<path stroke="#000000" stroke-width="2.97268" d="M479.396+463.931C479.396+463.931+433.196+478.19+394.657+477.87C356.118+477.55+325.368+463.13+325.368+463.13" fill="none" stroke-linecap="round" opacity="1" stroke-linejoin="round"/>
<path stroke="#000000" stroke-width="2.97268" d="M334.887+449.419L330.715+456.036L327.063+461.828L323.693+467.173L319.239+474.236L313.251+462.417L307.264+450.597L321.075+450.008L334.887+449.419Z" fill="#000000" stroke-linecap="round" opacity="1" stroke-linejoin="round"/>
</g>
<path d="M670.732+300.574L637.891+300.574C631.225+300.574+625.821+306.914+625.821+314.734L625.821+329.779C625.821+334.346+629.586+339.257+629.652+342.071C629.716+344.817+635.947+343.758+637.891+343.939L670.732+343.939C677.398+343.939+682.801+337.599+682.801+329.779L682.801+314.734C682.801+306.914+677.398+300.574+670.732+300.574Z" opacity="1" fill="#d86e6e"/>
<path d="M643.687+306.553L636.145+301.081C634.615+299.97+629.224+304.637+624.105+311.505L614.256+324.718C609.137+331.586+606.228+338.054+607.758+339.165L615.3+344.637C616.831+345.748+622.222+341.081+627.341+334.213L637.189+321C642.309+314.132+645.218+307.664+643.687+306.553Z" opacity="1" fill="#d86e6e"/>
<path d="M691.254+356.29L691.254+356.29C689.275+353.318+692.106+348.003+689.087+349.971L677.747+364.59L673.256+364L670.94+364.463C661.891+367.981+661.103+373.413+668.94+369.969C668.94+369.969+664.871+371.985+665.09+372.652C665.402+373.599+670.435+372.347+670.435+372.347C670.435+372.347+666.836+374.646+667.198+375.193C668.108+376.572+671.998+373.937+671.998+373.937C664.647+380.742+675.374+376.863+678.393+374.894L681.497+372.407L690.066+367.374L695.136+361.924C698.155+359.955+693.233+359.262+691.254+356.29Z" opacity="1" fill="#ebb58a"/>
<g opacity="1">
<path d="M674.047+301.63L666.597+307.256C665.085+308.397+668.095+314.808+673.321+321.575L683.375+334.591C688.601+341.358+701.415+355.357+702.927+354.216L709.794+344.756C711.306+343.614+701.528+331.597+696.302+324.83L686.248+311.813C681.022+305.047+675.559+300.488+674.047+301.63Z" opacity="1" fill="#d86e6e"/>
<path d="M677.337+358.468L689.207+369.213C690.575+370.507+693.296+365.38+699.286+359.207C699.286+359.207+709.111+346+707.743+344.705L702.609+336.339C701.24+335.045+687.587+348.144+687.587+348.144C681.598+354.317+675.969+357.173+677.337+358.468Z" opacity="1" fill="#d86e6e"/>
</g>
<path d="M598.286+334.755L598.286+334.755C598.977+331.239+605.178+332.113+601.646+331.466L582.838+331.496L580.796+327.674C580.796+327.674+580.266+322.499+579.229+322.456C577.254+322.373+578.164+326.487+577.4+327.871C577.252+328.141+575.045+327.09+575.045+327.09C575.045+327.09+572.659+326.13+571.506+326.96C570.353+327.79+570.433+330.411+570.433+330.411L570.09+334.528C569.399+338.044+572.494+338.77+576.026+339.416L579.986+339.745L589.486+339.384L597.068+341.51C600.601+342.156+597.595+338.271+598.286+334.755Z" opacity="1" fill="#ebb58a"/>
<path d="M618.164+344.192L619.453+342.288L621.872+335.333C622.082+333.461+606.755+330.402+606.755+330.402L590.288+328.763C590.288+328.763+586.398+328.784+584.739+328.183L581.358+343.169C584.089+342.662+590.136+341.839+590.136+341.839L608.392+344.764C608.392+344.764+617.954+346.064+618.164+344.192Z" opacity="1" fill="#d86e6e"/>
<path d="M654.847+264.75L654.847+264.75C648.024+264.75+642.493+270.208+642.493+276.94L642.493+278.304C642.493+285.037+648.024+290.495+654.847+290.495L654.847+290.495C661.671+290.495+667.202+285.037+667.202+278.304L667.202+276.94C667.202+270.208+661.671+264.75+654.847+264.75Z" opacity="1" fill="#ebb58a"/>
<path d="M655.132+264.737L655.132+264.737C648.626+264.737+642.551+269.404+642.551+273.498L642.529+275.646C644.679+270.124+648.587+271.468+648.587+271.468C648.587+271.468+659.065+271.447+660.742+271.793C663.071+272.273+666.752+277.047+666.938+276.873C667.447+276.394+666.913+272.15+666.913+272.15C666.913+268.056+661.638+264.737+655.132+264.737Z" opacity="1" fill="#f7c858"/>
<path stroke="#000000" stroke-width="2.1" d="M609.306+331.641L585.716+329.218" fill="none" stroke-linecap="round" opacity="1" stroke-linejoin="round"/>
<path stroke="#000000" stroke-width="2.09192" d="M612.81+335.933L609.895+331.825" fill="none" stroke-linecap="round" opacity="1" stroke-linejoin="round"/>
<g opacity="1">
<path d="M565.987+366.876L565.987+366.876C565.318+363.641+559.323+364.445+562.738+363.85L580.923+363.878L582.897+360.361C582.897+360.361+583.409+355.599+584.412+355.559C586.322+355.484+585.442+359.268+586.18+360.543C586.324+360.79+588.458+359.823+588.458+359.823C588.458+359.823+590.765+358.94+591.879+359.704C592.994+360.468+592.917+362.879+592.917+362.879L593.249+366.667C593.917+369.902+590.924+370.57+587.509+371.165L583.681+371.467L574.495+371.136L567.164+373.091C563.749+373.686+566.655+370.111+565.987+366.876Z" opacity="1" fill="#ebb58a"/>
<path d="M479.224+387.494L479.224+387.494C480.48+384.524+477.179+380.239+480.117+381.508L492.289+392.724L496.107+391.474L498.196+391.515C506.628+393.196+508.168+397.915+500.802+396.105L498.763+400.137C497.507+403.106+496.284+403.29+493.346+402.02L490.252+400.301L482+397.191L476.728+393.145C473.79+391.875+477.967+390.463+479.224+387.494Z" opacity="1" fill="#ebb58a"/>
<path d="M491.008+328.649L523.85+328.649C530.515+328.649+535.919+334.111+535.919+340.849L535.919+353.812C535.919+357.747+532.155+361.978+532.088+364.403C532.024+366.768+525.793+365.857+523.85+366.012L491.008+366.012C484.342+366.012+478.939+360.55+478.939+353.812L478.939+340.849C478.939+334.111+484.342+328.649+491.008+328.649Z" opacity="1" fill="#ae5252"/>
<path d="M486.409+330.857L494.74+335.07C496.431+335.926+494.607+342.769+490.665+350.356L483.083+364.952C479.141+372.538+469.018+388.591+467.327+387.736L458.889+379.646C457.198+378.791+464.687+365.228+468.628+357.641L476.211+343.046C480.152+335.459+484.718+330.002+486.409+330.857Z" opacity="1" fill="#ae5252"/>
<path d="M518.053+334.628L525.595+329.156C527.125+328.045+532.516+332.712+537.636+339.58L547.484+352.793C552.603+359.661+555.512+366.129+553.982+367.24L546.44+372.712C544.909+373.823+539.518+369.156+534.399+362.288L524.551+349.075C519.431+342.207+516.522+335.739+518.053+334.628Z" opacity="1" fill="#ae5252"/>
<path d="M544.355+371.76L543.396+369.671L542.148+362.413C542.248+360.532+557.87+360.026+557.87+360.026L574.382+361.107C574.382+361.107+578.217+361.766+579.952+361.444L580.831+376.781C578.221+375.834+572.39+374.031+572.39+374.031L553.901+373.926C553.901+373.926+544.255+373.641+544.355+371.76Z" opacity="1" fill="#ae5252"/>
<path d="M493.265+387.376L483.492+400.058C482.375+401.575+478.787+397.013+471.797+392.002C471.797+392.002+459.782+380.749+460.899+379.232L464.465+370.087C465.582+368.57+481.344+379.036+481.344+379.036C488.334+384.048+494.382+385.859+493.265+387.376Z" opacity="1" fill="#ae5252"/>
<path stroke="#000000" stroke-width="3.09192" d="M488.418+355.489L488.011+356.115L475.617+375.211" fill="none" stroke-linecap="round" opacity="1" stroke-linejoin="round"/>
<path stroke="#000000" stroke-width="3.09192" d="M475.937+375.4L476.488+375.74L493.29+386.1" fill="none" stroke-linecap="round" opacity="1" stroke-linejoin="round"/>
<path stroke="#000000" stroke-width="3.09192" d="M469.492+376.179L475.847+374.69" fill="none" stroke-linecap="round" opacity="1" stroke-linejoin="round"/>
<path stroke="#000000" stroke-width="3.09192" d="M533.524+344.323C533.324+345.63+532.929+346.37+533.284+347.481C533.292+347.506+534.77+349.574+535.17+350.24C535.884+351.431+535.953+352.574+535.953+353.932C535.953+354.232+535.779+355.117+535.697+355.407C535.533+355.992+534.936+357.495+534.227+358.528C533.74+359.236+533.239+359.939+532.834+360.711C532.449+361.443+531.454+364.227+531.454+364.864" fill="none" stroke-linecap="round" opacity="1" stroke-linejoin="round"/>
<path d="M506.893+292.825L506.893+292.825C513.716+292.825+519.248+298.283+519.248+305.015L519.248+306.379C519.248+313.112+513.716+318.57+506.893+318.57L506.893+318.57C500.069+318.57+494.538+313.112+494.538+306.379L494.538+305.015C494.538+298.283+500.069+292.825+506.893+292.825Z" opacity="1" fill="#ebb58a"/>
<path d="M494.202+289.182L494.202+289.182C499.074+289.182+503.024+292.5+503.024+296.594L503.024+297.423C503.024+301.517+499.074+304.836+494.202+304.836L494.202+304.836C489.33+304.836+485.381+301.517+485.381+297.423L485.381+296.594C485.381+292.5+489.33+289.182+494.202+289.182Z" opacity="1" fill="#492b2b"/>
<path d="M506.333+292.959L506.333+292.959C512.84+292.959+518.915+297.626+518.915+301.719L519.049+302.925C517.997+304.235+511.119+300.301+511.119+300.301C511.119+300.301+501.612+303.379+499.935+303.725C497.606+304.206+494.861+307.19+494.675+307.015C494.166+306.537+494.553+303.117+494.553+301.201L494.553+300.371C494.553+296.278+499.827+292.959+506.333+292.959Z" opacity="1" fill="#492b2b"/>
<g opacity="1">
<path stroke="#000000" stroke-width="2.1" d="M553.467+360.617L578.824+362.496" fill="none" stroke-linecap="round" opacity="1" stroke-linejoin="round"/>
<path stroke="#000000" stroke-width="2.09192" d="M548.827+363.227L552.806+360.66" fill="none" stroke-linecap="round" opacity="1" stroke-linejoin="round"/>
</g>
</g>
<path d="M542.035+270.727L561.04+270.727C566.036+270.727+570.087+275.63+570.087+281.678L570.087+281.678C570.087+287.726+566.036+292.63+561.04+292.63L542.035+292.63C539.811+292.63+532.545+296.937+530.97+295.327C529.659+293.987+538.795+290.378+536.277+287.607C534.708+285.881+532.987+282.797+532.987+281.678L532.987+281.678C532.987+275.63+537.038+270.727+542.035+270.727Z" opacity="1" fill="#ffe0ce"/>
<path d="M622.511+248.996L603.507+248.996C598.51+248.996+594.459+253.899+594.459+259.947L594.459+259.947C594.459+265.995+598.51+270.899+603.507+270.899L622.511+270.899C624.735+270.899+632.001+275.206+633.576+273.596C634.887+272.256+625.751+268.647+628.269+265.876C629.838+264.15+631.559+261.066+631.559+259.947L631.559+259.947C631.559+253.899+627.508+248.996+622.511+248.996Z" opacity="1" fill="#ffe0ce"/>
<g opacity="1">
<path stroke="#000000" stroke-width="4.08932" d="M341.094+30.8438L341.094+175.531L443.938+175.531L443.938+30.8438L428.701+31.2193C428.585+33.7476+428.7+36.9428+426.98+38.8503C425.089+40.9475+421.288+41.2612+418.477+41.2612C411.234+41.2612+405.9+41.4188+392.75+41.3692C379.599+41.3195+373.342+41.0625+365.875+41.0625C363.112+41.0625+359.926+41.4057+358.117+39.5944C356.309+37.785+357.349+33.7801+357.349+31.0201C357.349+30.9436+341.094+30.8438+341.094+30.8438Z" fill="#ffe0ce" stroke-linecap="round" opacity="1" stroke-linejoin="round"/>
<path d="M391.628+18.3814C387.716+18.4184+385.106+22.4299+386.847+25.4126C387.071+25.7978+382.182+27.6833+377.159+28.0689C372.396+28.4344+367.472+27.3189+367.472+27.3189C363.979+27.3189+361.767+30.3057+361.503+33.2468C361.306+35.4333+360.785+37.0359+362.101+37.6469C363.417+38.2579+365.464+38.0064+367.472+38.0064L417.878+38.0064C420.04+38.0064+422.647+38.213+423.793+36.8143C424.498+35.9537+424.222+33.7875+424.222+32.6626C424.222+29.7096+421.371+27.3189+417.878+27.3189C417.878+27.3189+412.885+28.9415+407.753+28.6314C402.021+28.2851+396.211+26.0572+396.472+25.5689C398.327+22.0929+395.539+18.3443+391.628+18.3814ZM391.128+20.6939C392.375+20.3971+393.612+21.1656+393.909+22.4126C393.923+22.4719+393.958+22.6033+393.972+22.6626C394.268+23.9097+393.5+25.1471+392.253+25.4439C391.006+25.7406+389.737+24.9722+389.44+23.7251C389.426+23.6658+389.423+23.5344+389.409+23.4751C389.112+22.2281+389.881+20.9906+391.128+20.6939Z" opacity="1" fill="#000000"/>
<path stroke="#000000" stroke-width="2.09" d="M347.612+48.2828L424.568+48.304L426.899+58.5442L437.634+56.4295L437.741+170.079L347.612+170.079L347.612+48.2828Z" fill="#fdf1eb" stroke-linecap="round" opacity="1" stroke-linejoin="round"/>
<path stroke="#000000" stroke-width="2.08932" d="M352.171+66.5412L366.832+66.5412L366.832+82.4498L352.171+82.4498L352.171+66.5412Z" fill="#ffe0ce" stroke-linecap="round" opacity="1" stroke-linejoin="round"/>
<path stroke="#000000" stroke-width="2.08932" d="M377.753+71.8706L414.337+72.106" fill="none" stroke-linecap="round" opacity="1" stroke-linejoin="round"/>
<path stroke="#000000" stroke-width="2.08932" d="M378.222+77.1487L426.929+77.655" fill="none" stroke-linecap="round" opacity="1" stroke-linejoin="round"/>
<path stroke="#000000" stroke-width="2.08932" d="M361.517+92.939L376.177+92.939L376.177+108.848L361.517+108.848L361.517+92.939Z" fill="#ffe0ce" stroke-linecap="round" opacity="1" stroke-linejoin="round"/>
<path stroke="#000000" stroke-width="2.08932" d="M385.394+96.677L431.659+96.9561" fill="none" stroke-linecap="round" opacity="1" stroke-linejoin="round"/>
<path stroke="#000000" stroke-width="2.08932" d="M385.215+101.792L425.409+102.298" fill="none" stroke-linecap="round" opacity="1" stroke-linejoin="round"/>
<path stroke="#000000" stroke-width="2.08932" d="M352.152+118.616L366.812+118.616L366.812+134.524L352.152+134.524L352.152+118.616Z" fill="#ffe0ce" stroke-linecap="round" opacity="1" stroke-linejoin="round"/>
<path stroke="#000000" stroke-width="2.08932" d="M361.052+142.046L375.712+142.046L375.712+157.955L361.052+157.955L361.052+142.046Z" fill="#ffe0ce" stroke-linecap="round" opacity="1" stroke-linejoin="round"/>
<path stroke="#000000" stroke-width="2.08932" d="M374.76+121.751L421.025+122.03" fill="none" stroke-linecap="round" opacity="1" stroke-linejoin="round"/>
<path stroke="#000000" stroke-width="2.08932" d="M374.613+128.011L394.161+128.107" fill="none" stroke-linecap="round" opacity="1" stroke-linejoin="round"/>
<path stroke="#000000" stroke-width="2.08932" d="M383.669+147.481L407.07+147.692" fill="none" stroke-linecap="round" opacity="1" stroke-linejoin="round"/>
<path stroke="#000000" stroke-width="2.08932" d="M383.681+152.38L429.946+152.659" fill="none" stroke-linecap="round" opacity="1" stroke-linejoin="round"/>
<path stroke="#000000" stroke-width="2.08932" d="M400.677+128.245L420.225+128.342" fill="none" stroke-linecap="round" opacity="1" stroke-linejoin="round"/>
<path stroke="#000000" stroke-width="2.09" d="M424.474+48.2948L437.398+56.0787" fill="none" stroke-linecap="round" opacity="1" stroke-linejoin="round"/>
</g>
</g>
</svg>
