<?xml version="1.0" encoding="UTF-8" standalone="no"?> <!-- Created with Vectornator for iOS (http://vectornator.io/) --><!DOCTYPE svg PUBLIC "-//W3C//DTD SVG 1.1//EN" "http://www.w3.org/Graphics/SVG/1.1/DTD/svg11.dtd">
<svg height="100%" style="fill-rule:nonzero;clip-rule:evenodd;stroke-linecap:round;stroke-linejoin:round;" xmlns:xlink="http://www.w3.org/1999/xlink" xmlns="http://www.w3.org/2000/svg" xml:space="preserve" width="100%" xmlns:vectornator="http://vectornator.io" version="1.1" viewBox="0 0 800 500">
<metadata>
<vectornator:setting key="DimensionsVisible" value="1"/>
<vectornator:setting key="PencilOnly" value="0"/>
<vectornator:setting key="SnapToPoints" value="0"/>
<vectornator:setting key="OutlineMode" value="0"/>
<vectornator:setting key="CMYKEnabledKey" value="0"/>
<vectornator:setting key="RulersVisible" value="1"/>
<vectornator:setting key="SnapToEdges" value="0"/>
<vectornator:setting key="GuidesVisible" value="1"/>
<vectornator:setting key="DisplayWhiteBackground" value="0"/>
<vectornator:setting key="doHistoryDisabled" value="0"/>
<vectornator:setting key="SnapToGuides" value="1"/>
<vectornator:setting key="TimeLapseWatermarkDisabled" value="0"/>
<vectornator:setting key="Units" value="Pixels"/>
<vectornator:setting key="DynamicGuides" value="0"/>
<vectornator:setting key="IsolateActiveLayer" value="0"/>
<vectornator:setting key="SnapToGrid" value="0"/>
</metadata>
<defs/>
<g id="Layer 1" vectornator:layerName="Layer 1">
<g opacity="1">
<path d="M48.4253+142.348C49.3487+141.171+344.295+52.7479+345.592+52.1069C505.51-26.9454+488.05+77.0671+520.64+74.8915C555.952+67.0632+587.923+36.5953+619.554+67.7554C653.897+100.915+636.308+131.999+674.12+130.628C695.028+129.87+724.42+159.289+729.442+176.036C740.585+213.189+687.548+243.702+702.991+257.688C708.763+272.372+739.289+284.159+748.592+317.142C753.843+335.759+744.631+374.279+725.411+401.836C668.597+483.291+588.524+480.885+479.894+473.123C464.745+472.041+441.144+467.724+419.987+451.471" opacity="1" fill="#ffe0ce"/>
<path d="M365.813+200.695C365.813+178.282+384.399+160.113+407.326+160.113C430.253+160.113+448.839+178.282+448.839+200.695C448.839+223.108+430.253+241.277+407.326+241.277C384.399+241.277+365.813+223.108+365.813+200.695Z" opacity="1" fill="#d84343"/>
<path stroke="#000000" stroke-width="0.1" d="M418.391+161.805C412.08+180.72+412.344+181.285+406.034+200.2L439.095+204.214L448.197+205.319C449.246+201.459+448.669+194.344+447.323+189.555C443.597+176.291+431.409+164.348+418.391+161.805Z" fill="#05d7b7" stroke-linecap="round" opacity="1" stroke-linejoin="round"/>
<path d="M202.42+255.733L202.42+255.733C218.157+257.828+271.132+327.045+269.321+344.242L239.19+355.388C237.38+372.585+211.568+320.409+195.831+318.313L195.831+318.313C180.094+316.218+168.804+300.579+170.615+283.382L170.647+283.076C172.458+265.879+186.683+253.637+202.42+255.733Z" opacity="1" fill="#ae5252"/>
<path d="M189.549+252.169L192.515+252.564C209.81+254.867+222.17+272.5+220.122+291.949L220.122+291.949C218.074+311.398+202.394+325.298+185.099+322.995L182.134+322.6C164.839+320.298+156.072+283.702+154.527+283.215C152.982+282.728+154.527+283.215+154.527+283.215C156.575+263.766+172.255+249.867+189.549+252.169Z" opacity="1" fill="#ae5252"/>
<path d="M226.441+412.003L227.683+416.708C231.729+418.167+234.429+410.101+233.131+414.65L226.808+438.081L234.492+451.652C233.195+456.201+225.409+449.12+221.364+447.661L217.165+444.864C213.12+443.405+206.811+439.81+208.108+435.261L218.469+411.681C219.766+407.132+222.396+410.544+226.441+412.003Z" opacity="1" fill="#ebb58a"/>
<path d="M157.205+438.208L157.205+438.208C161.453+438.208+164.91+431.178+164.91+435.956L162.175+458.86L173.178+469.144C173.178+473.921+163.842+469.852+159.593+469.852L154.835+468.632C150.587+468.632+143.604+467.375+143.604+462.597L149.067+438.064C149.067+433.286+152.957+438.208+157.205+438.208Z" opacity="1" fill="#ebb58a"/>
<path d="M174.779+438.445L145.124+442.685L154.786+281.868L209.762+302.786L174.779+438.445Z" opacity="1" fill="#ae5252"/>
<path d="M252.615+329.064L253.876+329.231C264.375+330.629+271.869+341.424+270.614+353.341L270.614+353.341C269.36+365.258+258.96+384.717+258.96+384.717L237.933+427.565C227.434+426.167+212.861+412.693+212.861+412.693L231.332+348.111C232.587+336.193+242.116+327.666+252.615+329.064Z" opacity="1" fill="#ae5252"/>
<path d="M202.653+446.735C202.653+446.735+201.595+446.672+201.006+443.642C200.417+440.613+200.289+439.8+201.516+435.987C202.661+432.434+203.423+429.333+206.576+429.966C207.913+429.754+217.993+443.572+222.24+445.867C224.274+447.145+227.776+448.874+230.06+449.694C235.032+450.627+232.53+448.387+233.757+448.919C241.482+450.384+237.314+464.444+230.352+460.384C229.523+460.027+227.865+459.314+227.865+459.314L220.718+455.873C220.718+455.873+213.223+452.302+212.266+450.567C210.807+447.922+211.826+444.009+210.267+444.761C209.697+445.036+209.207+447.882+207.521+448.875" opacity="1" fill="#ae5252"/>
<path d="M142.782+475.817C142.782+475.817+141.769+476.167+140.289+473.551C138.809+470.934+138.44+470.22+138.425+466.166C138.412+462.387+138.179+459.18+141.332+458.553C142.13+458.074+148.54+461.987+154.095+464.776C156.831+466.15+159.359+467.25+160.907+467.418C163.207+467.831+167.025+468.099+169.42+467.984C174.373+466.936+171.338+465.801+172.654+465.826C180.355+464.211+180.746+479.025+172.966+477.908C172.079+477.894+170.304+477.866+170.304+477.866L162.541+477.403C162.541+477.403+154.41+476.951+152.981+475.693C150.801+473.775+150.56+469.706+149.327+471.016C148.875+471.495+149.287+474.357+148.008+475.941" opacity="1" fill="#ae5252"/>
<path stroke="#000000" stroke-width="3.09192" d="M208.873+301.539L174.639+437.122" fill="none" stroke-linecap="round" opacity="1" stroke-linejoin="round"/>
<g opacity="1">
<path d="M263.235+218.971L263.235+218.971C259.85+214.482+252.656+220.788+256.648+216.982L280.385+201.705L281.37+194.396L282.959+190.986C291.572+178.463+299.54+179.771+291.521+190.432L295.871+197.077C299.256+201.566+298.626+203.732+294.634+207.538L289.876+211.235L277.64+218.456L269.598+227.687C265.606+231.493+266.619+223.461+263.235+218.971Z" opacity="1" fill="#ebb58a"/>
<path d="M148.961+275.685L148.961+275.685C151.019+270.273+145.612+262.464+150.425+264.778L170.363+285.215L176.617+282.939L180.04+283.012C193.851+286.077+196.374+294.676+184.308+291.377L180.968+298.724C178.911+304.136+176.907+304.471+172.094+302.157L167.026+299.024L153.509+293.356L144.873+285.982C140.061+283.668+146.903+281.096+148.961+275.685Z" opacity="1" fill="#ebb58a"/>
<path d="M166.101+178.131L213.7+178.131C223.361+178.131+231.193+187.154+231.193+198.284L231.193+219.697C231.193+226.197+225.737+233.188+225.641+237.193C225.548+241.1+216.517+239.594+213.7+239.851L166.101+239.851C156.44+239.851+148.608+230.828+148.608+219.697L148.608+198.284C148.608+187.154+156.44+178.131+166.101+178.131Z" opacity="1" fill="#ae5252"/>
<path d="M159.435+181.778L171.51+188.738C173.961+190.151+171.316+201.456+165.604+213.989L154.614+238.099C148.901+250.632+134.228+277.15+131.777+275.737L119.548+262.374C117.097+260.961+127.951+238.556+133.664+226.023L144.654+201.913C150.367+189.38+156.984+180.365+159.435+181.778Z" opacity="1" fill="#ae5252"/>
<path d="M205.299+188.008L216.23+178.968C218.448+177.133+226.262+184.843+233.681+196.188L247.956+218.014C255.375+229.36+259.592+240.045+257.373+241.879L246.442+250.92C244.224+252.755+236.41+245.045+228.991+233.699L214.717+211.873C207.297+200.527+203.08+189.843+205.299+188.008Z" opacity="1" fill="#ae5252"/>
<path d="M244.914+248.726L241.929+247.039L233.908+239.014C232.305+236.496+249.445+219.614+249.445+219.614L269.037+203.845C269.037+203.845+273.958+200.707+275.62+198.492L290.593+217.274C286.788+218.77+278.574+222.513+278.574+222.513L257.645+241.588C257.645+241.588+246.517+251.244+244.914+248.726Z" opacity="1" fill="#ae5252"/>
<path d="M169.371+275.143L155.207+296.093C153.588+298.598+148.387+291.062+138.256+282.784C138.256+282.784+120.842+264.195+122.46+261.689L127.63+246.582C129.249+244.077+152.094+261.367+152.094+261.367C162.225+269.645+170.99+272.637+169.371+275.143Z" opacity="1" fill="#ae5252"/>
<path stroke="#000000" stroke-width="3.09192" d="M162.346+222.468L161.757+223.503L143.793+255.047" fill="none" stroke-linecap="round" opacity="1" stroke-linejoin="round"/>
<path stroke="#000000" stroke-width="3.09192" d="M144.257+255.36L145.056+255.921L169.408+273.034" fill="none" stroke-linecap="round" opacity="1" stroke-linejoin="round"/>
<path stroke="#000000" stroke-width="3.09192" d="M134.915+256.647L144.126+254.186" fill="none" stroke-linecap="round" opacity="1" stroke-linejoin="round"/>
<path stroke="#000000" stroke-width="3.09192" d="M247.618+229.503L248.979+220.205" fill="none" stroke-linecap="round" opacity="1" stroke-linejoin="round"/>
<path stroke="#000000" stroke-width="3.09192" d="M248.982+218.993L275.291+200.133" fill="none" stroke-linecap="round" opacity="1" stroke-linejoin="round"/>
<path stroke="#000000" stroke-width="3.09192" d="M227.721+204.023C227.432+206.181+226.86+207.405+227.374+209.239C227.386+209.28+229.528+212.697+230.107+213.797C231.143+215.765+231.243+217.652+231.243+219.895C231.243+220.392+230.99+221.854+230.872+222.332C230.634+223.298+229.769+225.782+228.74+227.489C228.036+228.658+227.31+229.82+226.722+231.094C226.165+232.304+224.722+236.902+224.722+237.954" fill="none" stroke-linecap="round" opacity="1" stroke-linejoin="round"/>
<path d="M189.124+118.952L189.124+118.952C199.013+118.952+207.03+127.968+207.03+139.09L207.03+141.343C207.03+152.464+199.013+161.48+189.124+161.48L189.124+161.48C179.234+161.48+171.217+152.464+171.217+141.343L171.217+139.09C171.217+127.968+179.234+118.952+189.124+118.952Z" opacity="1" fill="#ebb58a"/>
<path d="M170.73+112.934L170.73+112.934C177.792+112.934+183.516+118.416+183.516+125.178L183.516+126.549C183.516+133.311+177.792+138.793+170.73+138.793L170.73+138.793C163.669+138.793+157.945+133.311+157.945+126.549L157.945+125.178C157.945+118.416+163.669+112.934+170.73+112.934Z" opacity="1" fill="#492b2b"/>
<path d="M188.313+119.174L188.313+119.174C197.743+119.174+206.548+126.883+206.548+133.645L206.743+135.636C205.217+137.801+195.249+131.303+195.249+131.303C195.249+131.303+181.47+136.387+179.039+136.959C175.663+137.752+171.685+142.682+171.415+142.393C170.677+141.603+171.238+135.954+171.238+132.788L171.238+131.418C171.238+124.656+178.883+119.174+188.313+119.174Z" opacity="1" fill="#492b2b"/>
</g>
<path stroke="#737373" stroke-width="3.09192" d="M500.385+166.158L600.305+166.158L600.305+166.158L600.305+241.29L600.305+241.29L500.385+241.29L500.385+241.29L500.385+166.158L500.385+166.158Z" fill="none" stroke-linecap="round" opacity="1" stroke-linejoin="round"/>
<path stroke="#000000" stroke-width="3.09192" d="M374.248+279.787L373.869+353.251" fill="none" stroke-linecap="round" opacity="1" stroke-linejoin="round"/>
<path stroke="#000000" stroke-width="3.09192" d="M605.277+354.183L373.776+354.177" fill="none" stroke-linecap="round" opacity="1" stroke-linejoin="round"/>
<path stroke="#737373" stroke-width="3.09192" d="M519.278+241.506L519.688+166.78" fill="none" stroke-linecap="round" opacity="1" stroke-linejoin="round"/>
<path stroke="#737373" stroke-width="3.09192" d="M540.543+239.912L540.89+167.256" fill="none" stroke-linecap="round" opacity="1" stroke-linejoin="round"/>
<path stroke="#737373" stroke-width="3.09192" d="M560.78+241.236L561.181+166.973" fill="none" stroke-linecap="round" opacity="1" stroke-linejoin="round"/>
<path stroke="#737373" stroke-width="3.09192" d="M581.363+239.862L581.857+167.158" fill="none" stroke-linecap="round" opacity="1" stroke-linejoin="round"/>
<path stroke="#737373" stroke-width="3.09192" d="M500.717+231.838L599.31+231.941" fill="none" stroke-linecap="round" opacity="1" stroke-linejoin="round"/>
<path stroke="#737373" stroke-width="3.09192" d="M501.168+222.14L598.132+222.243" fill="none" stroke-linecap="round" opacity="1" stroke-linejoin="round"/>
<path stroke="#737373" stroke-width="3.09192" d="M500.99+212.902L599.582+213.005" fill="none" stroke-linecap="round" opacity="1" stroke-linejoin="round"/>
<path stroke="#737373" stroke-width="3.09192" d="M499.943+203.654L598.536+203.757" fill="none" stroke-linecap="round" opacity="1" stroke-linejoin="round"/>
<path stroke="#737373" stroke-width="3.09192" d="M501.435+194.257L600.028+194.36" fill="none" stroke-linecap="round" opacity="1" stroke-linejoin="round"/>
<path stroke="#737373" stroke-width="3.09192" d="M500.629+184.86L599.222+184.963" fill="none" stroke-linecap="round" opacity="1" stroke-linejoin="round"/>
<path stroke="#737373" stroke-width="3.09192" d="M501.124+175.449L599.717+175.552" fill="none" stroke-linecap="round" opacity="1" stroke-linejoin="round"/>
<path stroke="#05d1b2" stroke-width="2.13691" d="M384.538+290.187C392.394+288.278+392.926+288.813+398.165+294.513C399.82+296.314+404.828+298.171+405.827+300.499C407.631+304.702+407.728+314.042+412.688+316.655C413.122+316.883+415.479+310.689+418.143+311.76C421.387+313.063+421.676+318.914+425.561+320.626C428.376+321.866+432.639+320.427+435.618+320.844C441.593+321.682+447.164+325.325+453.174+326.436C456.766+327.1+468.814+327.59+471.634+326.589C473.711+325.852+479.023+318.501+482.064+320.195C485.682+322.21+485.086+329.128+488.264+331.357C490.422+332.87+504.69+334.714+507.251+334.273C511.931+333.467+511.863+318.848+511.863+315.36C511.863+314.076+511.863+312.792+511.863+311.508C511.863+310.625+511.403+308.102+511.863+308.857C516.353+316.234+517.661+324.77+521.75+332.206C523.344+335.104+525.801+330.566+527.652+332.174C529.557+333.829+530.037+336.706+531.997+338.176C535.558+340.846+543.681+339.774+548.011+341.097C550.555+341.874+552.472+345.187+554.589+345.717C556.005+346.071+555.989+343.66+557.612+343.66C558.762+343.66+563.876+345.053+564.451+344.556C569.337+340.327+589.392+338.631+595.452+341.655" fill="none" stroke-linecap="round" opacity="1" stroke-linejoin="round"/>
<g opacity="1">
<path stroke="#000000" stroke-width="0.415093" d="M418.333+162.982L406.466+199.42" fill="#662f2f" stroke-linecap="round" opacity="1" stroke-linejoin="round"/>
<path stroke="#000000" stroke-width="0.415093" d="M448.031+205.566L405.822+200.421" fill="#662f2f" stroke-linecap="round" opacity="1" stroke-linejoin="round"/>
</g>
<path stroke="#000000" stroke-width="0.1" d="M394.396+200.68C394.396+193.081+400.661+186.92+408.391+186.92C416.12+186.92+422.386+193.081+422.386+200.68C422.386+208.279+416.12+214.439+408.391+214.439C400.661+214.439+394.396+208.279+394.396+200.68Z" fill="#ffffff" stroke-linecap="round" opacity="1" stroke-linejoin="round"/>
<g opacity="1">
<path d="M550.148+91.8689L550.148+90.9929C550.974+90.9125+551.549+90.7781+551.875+90.5898C552.201+90.4015+552.444+89.9561+552.605+89.2536L553.506+89.2536L553.506+98.3054L552.288+98.3054L552.288+91.8689L550.148+91.8689Z" opacity="1" fill="#000000"/>
<path d="M559.651+89.2155C560.827+89.2155+561.678+89.7001+562.203+90.6692C562.609+91.4182+562.812+92.4444+562.812+93.7478C562.812+94.9835+562.628+96.0054+562.26+96.8137C561.727+97.9732+560.855+98.553+559.644+98.553C558.553+98.553+557.74+98.079+557.207+97.1311C556.763+96.3397+556.54+95.2776+556.54+93.9446C556.54+92.912+556.674+92.0254+556.94+91.2849C557.44+89.9053+558.343+89.2155+559.651+89.2155ZM559.638+97.5119C560.231+97.5119+560.702+97.2496+561.054+96.7248C561.405+96.2001+561.581+95.2225+561.581+93.7922C561.581+92.7597+561.454+91.9101+561.2+91.2436C560.946+90.5771+560.453+90.2439+559.721+90.2439C559.048+90.2439+558.556+90.5602+558.245+91.1928C557.934+91.8255+557.778+92.7575+557.778+93.989C557.778+94.9157+557.878+95.6605+558.077+96.2234C558.381+97.0824+558.902+97.5119+559.638+97.5119Z" opacity="1" fill="#000000"/>
<path d="M564.608+91.8689L564.608+90.9929C565.434+90.9125+566.009+90.7781+566.335+90.5898C566.661+90.4015+566.904+89.9561+567.065+89.2536L567.966+89.2536L567.966+98.3054L566.748+98.3054L566.748+91.8689L564.608+91.8689Z" opacity="1" fill="#000000"/>
<path d="M574.111+89.2155C575.287+89.2155+576.138+89.7001+576.663+90.6692C577.069+91.4182+577.272+92.4444+577.272+93.7478C577.272+94.9835+577.088+96.0054+576.72+96.8137C576.186+97.9732+575.315+98.553+574.104+98.553C573.013+98.553+572.2+98.079+571.667+97.1311C571.223+96.3397+571+95.2776+571+93.9446C571+92.912+571.134+92.0254+571.4+91.2849C571.9+89.9053+572.803+89.2155+574.111+89.2155ZM574.098+97.5119C574.691+97.5119+575.162+97.2496+575.514+96.7248C575.865+96.2001+576.04+95.2225+576.04+93.7922C576.04+92.7597+575.914+91.9101+575.66+91.2436C575.406+90.5771+574.913+90.2439+574.181+90.2439C573.508+90.2439+573.016+90.5602+572.705+91.1928C572.394+91.8255+572.238+92.7575+572.238+93.989C572.238+94.9157+572.338+95.6605+572.537+96.2234C572.841+97.0824+573.362+97.5119+574.098+97.5119Z" opacity="1" fill="#000000"/>
<path d="M579.068+91.8689L579.068+90.9929C579.894+90.9125+580.469+90.7781+580.795+90.5898C581.121+90.4015+581.364+89.9561+581.525+89.2536L582.426+89.2536L582.426+98.3054L581.207+98.3054L581.207+91.8689L579.068+91.8689Z" opacity="1" fill="#000000"/>
<path d="M588.571+89.2155C589.747+89.2155+590.598+89.7001+591.123+90.6692C591.529+91.4182+591.732+92.4444+591.732+93.7478C591.732+94.9835+591.548+96.0054+591.18+96.8137C590.646+97.9732+589.775+98.553+588.564+98.553C587.473+98.553+586.66+98.079+586.127+97.1311C585.683+96.3397+585.46+95.2776+585.46+93.9446C585.46+92.912+585.594+92.0254+585.86+91.2849C586.36+89.9053+587.263+89.2155+588.571+89.2155ZM588.558+97.5119C589.151+97.5119+589.622+97.2496+589.974+96.7248C590.325+96.2001+590.5+95.2225+590.5+93.7922C590.5+92.7597+590.373+91.9101+590.12+91.2436C589.866+90.5771+589.373+90.2439+588.641+90.2439C587.968+90.2439+587.476+90.5602+587.165+91.1928C586.854+91.8255+586.698+92.7575+586.698+93.989C586.698+94.9157+586.798+95.6605+586.997+96.2234C587.301+97.0824+587.822+97.5119+588.558+97.5119Z" opacity="1" fill="#000000"/>
<path d="M593.528+91.8689L593.528+90.9929C594.353+90.9125+594.929+90.7781+595.255+90.5898C595.581+90.4015+595.824+89.9561+595.985+89.2536L596.886+89.2536L596.886+98.3054L595.667+98.3054L595.667+91.8689L593.528+91.8689Z" opacity="1" fill="#000000"/>
<path d="M603.031+89.2155C604.207+89.2155+605.058+89.7001+605.582+90.6692C605.989+91.4182+606.192+92.4444+606.192+93.7478C606.192+94.9835+606.008+96.0054+605.64+96.8137C605.106+97.9732+604.235+98.553+603.024+98.553C601.933+98.553+601.12+98.079+600.587+97.1311C600.143+96.3397+599.92+95.2776+599.92+93.9446C599.92+92.912+600.054+92.0254+600.32+91.2849C600.82+89.9053+601.723+89.2155+603.031+89.2155ZM603.018+97.5119C603.61+97.5119+604.082+97.2496+604.434+96.7248C604.785+96.2001+604.96+95.2225+604.96+93.7922C604.96+92.7597+604.833+91.9101+604.58+91.2436C604.326+90.5771+603.833+90.2439+603.101+90.2439C602.428+90.2439+601.936+90.5602+601.625+91.1928C601.314+91.8255+601.158+92.7575+601.158+93.989C601.158+94.9157+601.258+95.6605+601.456+96.2234C601.761+97.0824+602.282+97.5119+603.018+97.5119Z" opacity="1" fill="#000000"/>
<path d="M607.988+91.8689L607.988+90.9929C608.813+90.9125+609.389+90.7781+609.715+90.5898C610.041+90.4015+610.284+89.9561+610.445+89.2536L611.346+89.2536L611.346+98.3054L610.127+98.3054L610.127+91.8689L607.988+91.8689Z" opacity="1" fill="#000000"/>
<path d="M615.218+91.8689L615.218+90.9929C616.043+90.9125+616.619+90.7781+616.945+90.5898C617.271+90.4015+617.514+89.9561+617.675+89.2536L618.576+89.2536L618.576+98.3054L617.357+98.3054L617.357+91.8689L615.218+91.8689Z" opacity="1" fill="#000000"/>
<path d="M624.721+89.2155C625.897+89.2155+626.748+89.7001+627.272+90.6692C627.679+91.4182+627.882+92.4444+627.882+93.7478C627.882+94.9835+627.698+96.0054+627.33+96.8137C626.796+97.9732+625.925+98.553+624.714+98.553C623.623+98.553+622.81+98.079+622.277+97.1311C621.832+96.3397+621.61+95.2776+621.61+93.9446C621.61+92.912+621.744+92.0254+622.01+91.2849C622.51+89.9053+623.413+89.2155+624.721+89.2155ZM624.708+97.5119C625.3+97.5119+625.772+97.2496+626.123+96.7248C626.475+96.2001+626.65+95.2225+626.65+93.7922C626.65+92.7597+626.523+91.9101+626.269+91.2436C626.016+90.5771+625.523+90.2439+624.79+90.2439C624.118+90.2439+623.626+90.5602+623.315+91.1928C623.004+91.8255+622.848+92.7575+622.848+93.989C622.848+94.9157+622.948+95.6605+623.146+96.2234C623.451+97.0824+623.972+97.5119+624.708+97.5119Z" opacity="1" fill="#000000"/>
<path d="M629.678+91.8689L629.678+90.9929C630.503+90.9125+631.079+90.7781+631.405+90.5898C631.731+90.4015+631.974+89.9561+632.135+89.2536L633.036+89.2536L633.036+98.3054L631.817+98.3054L631.817+91.8689L629.678+91.8689Z" opacity="1" fill="#000000"/>
<path d="M639.181+89.2155C640.357+89.2155+641.208+89.7001+641.732+90.6692C642.139+91.4182+642.342+92.4444+642.342+93.7478C642.342+94.9835+642.158+96.0054+641.79+96.8137C641.256+97.9732+640.385+98.553+639.174+98.553C638.082+98.553+637.27+98.079+636.737+97.1311C636.292+96.3397+636.07+95.2776+636.07+93.9446C636.07+92.912+636.204+92.0254+636.47+91.2849C636.97+89.9053+637.873+89.2155+639.181+89.2155ZM639.168+97.5119C639.76+97.5119+640.232+97.2496+640.583+96.7248C640.935+96.2001+641.11+95.2225+641.11+93.7922C641.11+92.7597+640.983+91.9101+640.729+91.2436C640.476+90.5771+639.983+90.2439+639.25+90.2439C638.578+90.2439+638.086+90.5602+637.775+91.1928C637.464+91.8255+637.308+92.7575+637.308+93.989C637.308+94.9157+637.408+95.6605+637.606+96.2234C637.911+97.0824+638.432+97.5119+639.168+97.5119Z" opacity="1" fill="#000000"/>
<path d="M644.138+91.8689L644.138+90.9929C644.963+90.9125+645.539+90.7781+645.865+90.5898C646.191+90.4015+646.434+89.9561+646.595+89.2536L647.496+89.2536L647.496+98.3054L646.277+98.3054L646.277+91.8689L644.138+91.8689Z" opacity="1" fill="#000000"/>
<path d="M651.368+91.8689L651.368+90.9929C652.193+90.9125+652.769+90.7781+653.095+90.5898C653.421+90.4015+653.664+89.9561+653.825+89.2536L654.726+89.2536L654.726+98.3054L653.507+98.3054L653.507+91.8689L651.368+91.8689Z" opacity="1" fill="#000000"/>
<path d="M660.871+89.2155C662.047+89.2155+662.898+89.7001+663.422+90.6692C663.829+91.4182+664.032+92.4444+664.032+93.7478C664.032+94.9835+663.848+96.0054+663.479+96.8137C662.946+97.9732+662.075+98.553+660.864+98.553C659.772+98.553+658.96+98.079+658.427+97.1311C657.982+96.3397+657.76+95.2776+657.76+93.9446C657.76+92.912+657.894+92.0254+658.16+91.2849C658.659+89.9053+659.563+89.2155+660.871+89.2155ZM660.858+97.5119C661.45+97.5119+661.922+97.2496+662.273+96.7248C662.625+96.2001+662.8+95.2225+662.8+93.7922C662.8+92.7597+662.673+91.9101+662.419+91.2436C662.165+90.5771+661.672+90.2439+660.94+90.2439C660.268+90.2439+659.776+90.5602+659.465+91.1928C659.154+91.8255+658.998+92.7575+658.998+93.989C658.998+94.9157+659.097+95.6605+659.296+96.2234C659.601+97.0824+660.122+97.5119+660.858+97.5119Z" opacity="1" fill="#000000"/>
<path d="M665.828+91.8689L665.828+90.9929C666.653+90.9125+667.229+90.7781+667.555+90.5898C667.88+90.4015+668.124+89.9561+668.285+89.2536L669.186+89.2536L669.186+98.3054L667.967+98.3054L667.967+91.8689L665.828+91.8689Z" opacity="1" fill="#000000"/>
<path d="M675.331+89.2155C676.507+89.2155+677.358+89.7001+677.882+90.6692C678.289+91.4182+678.492+92.4444+678.492+93.7478C678.492+94.9835+678.308+96.0054+677.939+96.8137C677.406+97.9732+676.534+98.553+675.324+98.553C674.232+98.553+673.42+98.079+672.887+97.1311C672.442+96.3397+672.22+95.2776+672.22+93.9446C672.22+92.912+672.353+92.0254+672.62+91.2849C673.119+89.9053+674.023+89.2155+675.331+89.2155ZM675.318+97.5119C675.91+97.5119+676.382+97.2496+676.733+96.7248C677.085+96.2001+677.26+95.2225+677.26+93.7922C677.26+92.7597+677.133+91.9101+676.879+91.2436C676.625+90.5771+676.132+90.2439+675.4+90.2439C674.727+90.2439+674.236+90.5602+673.925+91.1928C673.613+91.8255+673.458+92.7575+673.458+93.989C673.458+94.9157+673.557+95.6605+673.756+96.2234C674.061+97.0824+674.581+97.5119+675.318+97.5119Z" opacity="1" fill="#000000"/>
<path d="M680.288+91.8689L680.288+90.9929C681.113+90.9125+681.689+90.7781+682.015+90.5898C682.34+90.4015+682.584+89.9561+682.745+89.2536L683.646+89.2536L683.646+98.3054L682.427+98.3054L682.427+91.8689L680.288+91.8689Z" opacity="1" fill="#000000"/>
<path d="M689.79+89.2155C690.967+89.2155+691.818+89.7001+692.342+90.6692C692.748+91.4182+692.952+92.4444+692.952+93.7478C692.952+94.9835+692.768+96.0054+692.399+96.8137C691.866+97.9732+690.994+98.553+689.784+98.553C688.692+98.553+687.88+98.079+687.347+97.1311C686.902+96.3397+686.68+95.2776+686.68+93.9446C686.68+92.912+686.813+92.0254+687.08+91.2849C687.579+89.9053+688.483+89.2155+689.79+89.2155ZM689.778+97.5119C690.37+97.5119+690.842+97.2496+691.193+96.7248C691.545+96.2001+691.72+95.2225+691.72+93.7922C691.72+92.7597+691.593+91.9101+691.339+91.2436C691.085+90.5771+690.592+90.2439+689.86+90.2439C689.187+90.2439+688.696+90.5602+688.384+91.1928C688.073+91.8255+687.918+92.7575+687.918+93.989C687.918+94.9157+688.017+95.6605+688.216+96.2234C688.521+97.0824+689.041+97.5119+689.778+97.5119Z" opacity="1" fill="#000000"/>
</g>
<g opacity="1">
<path d="M298.472+439.443L298.472+438.567C299.297+438.487+299.873+438.353+300.199+438.164C300.524+437.976+300.768+437.531+300.929+436.828L301.83+436.828L301.83+445.88L300.611+445.88L300.611+439.443L298.472+439.443Z" opacity="1" fill="#000000"/>
<path d="M307.974+436.79C309.151+436.79+310.001+437.275+310.526+438.244C310.932+438.993+311.136+440.019+311.136+441.322C311.136+442.558+310.951+443.58+310.583+444.388C310.05+445.548+309.178+446.127+307.968+446.127C306.876+446.127+306.064+445.653+305.531+444.705C305.086+443.914+304.864+442.852+304.864+441.519C304.864+440.486+304.997+439.6+305.264+438.859C305.763+437.48+306.667+436.79+307.974+436.79ZM307.962+445.086C308.554+445.086+309.026+444.824+309.377+444.299C309.728+443.775+309.904+442.797+309.904+441.367C309.904+440.334+309.777+439.485+309.523+438.818C309.269+438.152+308.776+437.818+308.044+437.818C307.371+437.818+306.879+438.135+306.568+438.767C306.257+439.4+306.102+440.332+306.102+441.563C306.102+442.49+306.201+443.235+306.4+443.798C306.705+444.657+307.225+445.086+307.962+445.086Z" opacity="1" fill="#000000"/>
<path d="M312.932+439.443L312.932+438.567C313.757+438.487+314.333+438.353+314.658+438.164C314.984+437.976+315.228+437.531+315.388+436.828L316.29+436.828L316.29+445.88L315.071+445.88L315.071+439.443L312.932+439.443Z" opacity="1" fill="#000000"/>
<path d="M322.434+436.79C323.611+436.79+324.461+437.275+324.986+438.244C325.392+438.993+325.596+440.019+325.596+441.322C325.596+442.558+325.411+443.58+325.043+444.388C324.51+445.548+323.638+446.127+322.428+446.127C321.336+446.127+320.524+445.653+319.991+444.705C319.546+443.914+319.324+442.852+319.324+441.519C319.324+440.486+319.457+439.6+319.724+438.859C320.223+437.48+321.127+436.79+322.434+436.79ZM322.422+445.086C323.014+445.086+323.486+444.824+323.837+444.299C324.188+443.775+324.364+442.797+324.364+441.367C324.364+440.334+324.237+439.485+323.983+438.818C323.729+438.152+323.236+437.818+322.504+437.818C321.831+437.818+321.339+438.135+321.028+438.767C320.717+439.4+320.562+440.332+320.562+441.563C320.562+442.49+320.661+443.235+320.86+443.798C321.165+444.657+321.685+445.086+322.422+445.086Z" opacity="1" fill="#000000"/>
<path d="M327.392+439.443L327.392+438.567C328.217+438.487+328.793+438.353+329.118+438.164C329.444+437.976+329.688+437.531+329.848+436.828L330.75+436.828L330.75+445.88L329.531+445.88L329.531+439.443L327.392+439.443Z" opacity="1" fill="#000000"/>
<path d="M336.894+436.79C338.071+436.79+338.921+437.275+339.446+438.244C339.852+438.993+340.055+440.019+340.055+441.322C340.055+442.558+339.871+443.58+339.503+444.388C338.97+445.548+338.098+446.127+336.888+446.127C335.796+446.127+334.984+445.653+334.45+444.705C334.006+443.914+333.784+442.852+333.784+441.519C333.784+440.486+333.917+439.6+334.184+438.859C334.683+437.48+335.587+436.79+336.894+436.79ZM336.882+445.086C337.474+445.086+337.946+444.824+338.297+444.299C338.648+443.775+338.824+442.797+338.824+441.367C338.824+440.334+338.697+439.485+338.443+438.818C338.189+438.152+337.696+437.818+336.964+437.818C336.291+437.818+335.799+438.135+335.488+438.767C335.177+439.4+335.022+440.332+335.022+441.563C335.022+442.49+335.121+443.235+335.32+443.798C335.625+444.657+336.145+445.086+336.882+445.086Z" opacity="1" fill="#000000"/>
<path d="M341.852+439.443L341.852+438.567C342.677+438.487+343.253+438.353+343.578+438.164C343.904+437.976+344.148+437.531+344.308+436.828L345.21+436.828L345.21+445.88L343.991+445.88L343.991+439.443L341.852+439.443Z" opacity="1" fill="#000000"/>
<path d="M351.354+436.79C352.531+436.79+353.381+437.275+353.906+438.244C354.312+438.993+354.515+440.019+354.515+441.322C354.515+442.558+354.331+443.58+353.963+444.388C353.43+445.548+352.558+446.127+351.348+446.127C350.256+446.127+349.444+445.653+348.91+444.705C348.466+443.914+348.244+442.852+348.244+441.519C348.244+440.486+348.377+439.6+348.644+438.859C349.143+437.48+350.047+436.79+351.354+436.79ZM351.342+445.086C351.934+445.086+352.406+444.824+352.757+444.299C353.108+443.775+353.284+442.797+353.284+441.367C353.284+440.334+353.157+439.485+352.903+438.818C352.649+438.152+352.156+437.818+351.424+437.818C350.751+437.818+350.259+438.135+349.948+438.767C349.637+439.4+349.482+440.332+349.482+441.563C349.482+442.49+349.581+443.235+349.78+443.798C350.085+444.657+350.605+445.086+351.342+445.086Z" opacity="1" fill="#000000"/>
<path d="M356.312+439.443L356.312+438.567C357.137+438.487+357.713+438.353+358.038+438.164C358.364+437.976+358.608+437.531+358.768+436.828L359.67+436.828L359.67+445.88L358.451+445.88L358.451+439.443L356.312+439.443Z" opacity="1" fill="#000000"/>
<path d="M363.542+439.443L363.542+438.567C364.367+438.487+364.943+438.353+365.268+438.164C365.594+437.976+365.838+437.531+365.998+436.828L366.9+436.828L366.9+445.88L365.681+445.88L365.681+439.443L363.542+439.443Z" opacity="1" fill="#000000"/>
<path d="M373.044+436.79C374.221+436.79+375.071+437.275+375.596+438.244C376.002+438.993+376.205+440.019+376.205+441.322C376.205+442.558+376.021+443.58+375.653+444.388C375.12+445.548+374.248+446.127+373.038+446.127C371.946+446.127+371.134+445.653+370.6+444.705C370.156+443.914+369.934+442.852+369.934+441.519C369.934+440.486+370.067+439.6+370.334+438.859C370.833+437.48+371.737+436.79+373.044+436.79ZM373.032+445.086C373.624+445.086+374.096+444.824+374.447+444.299C374.798+443.775+374.974+442.797+374.974+441.367C374.974+440.334+374.847+439.485+374.593+438.818C374.339+438.152+373.846+437.818+373.114+437.818C372.441+437.818+371.949+438.135+371.638+438.767C371.327+439.4+371.172+440.332+371.172+441.563C371.172+442.49+371.271+443.235+371.47+443.798C371.775+444.657+372.295+445.086+373.032+445.086Z" opacity="1" fill="#000000"/>
<path d="M378.002+439.443L378.002+438.567C378.827+438.487+379.402+438.353+379.728+438.164C380.054+437.976+380.297+437.531+380.458+436.828L381.36+436.828L381.36+445.88L380.141+445.88L380.141+439.443L378.002+439.443Z" opacity="1" fill="#000000"/>
<path d="M387.504+436.79C388.681+436.79+389.531+437.275+390.056+438.244C390.462+438.993+390.665+440.019+390.665+441.322C390.665+442.558+390.481+443.58+390.113+444.388C389.58+445.548+388.708+446.127+387.498+446.127C386.406+446.127+385.594+445.653+385.06+444.705C384.616+443.914+384.394+442.852+384.394+441.519C384.394+440.486+384.527+439.6+384.794+438.859C385.293+437.48+386.197+436.79+387.504+436.79ZM387.492+445.086C388.084+445.086+388.556+444.824+388.907+444.299C389.258+443.775+389.434+442.797+389.434+441.367C389.434+440.334+389.307+439.485+389.053+438.818C388.799+438.152+388.306+437.818+387.574+437.818C386.901+437.818+386.409+438.135+386.098+438.767C385.787+439.4+385.632+440.332+385.632+441.563C385.632+442.49+385.731+443.235+385.93+443.798C386.235+444.657+386.755+445.086+387.492+445.086Z" opacity="1" fill="#000000"/>
<path d="M392.462+439.443L392.462+438.567C393.287+438.487+393.862+438.353+394.188+438.164C394.514+437.976+394.757+437.531+394.918+436.828L395.82+436.828L395.82+445.88L394.601+445.88L394.601+439.443L392.462+439.443Z" opacity="1" fill="#000000"/>
<path d="M399.692+439.443L399.692+438.567C400.517+438.487+401.092+438.353+401.418+438.164C401.744+437.976+401.987+437.531+402.148+436.828L403.05+436.828L403.05+445.88L401.831+445.88L401.831+439.443L399.692+439.443Z" opacity="1" fill="#000000"/>
<path d="M409.194+436.79C410.371+436.79+411.221+437.275+411.746+438.244C412.152+438.993+412.355+440.019+412.355+441.322C412.355+442.558+412.171+443.58+411.803+444.388C411.27+445.548+410.398+446.127+409.188+446.127C408.096+446.127+407.283+445.653+406.75+444.705C406.306+443.914+406.084+442.852+406.084+441.519C406.084+440.486+406.217+439.6+406.484+438.859C406.983+437.48+407.887+436.79+409.194+436.79ZM409.181+445.086C409.774+445.086+410.246+444.824+410.597+444.299C410.948+443.775+411.124+442.797+411.124+441.367C411.124+440.334+410.997+439.485+410.743+438.818C410.489+438.152+409.996+437.818+409.264+437.818C408.591+437.818+408.099+438.135+407.788+438.767C407.477+439.4+407.322+440.332+407.322+441.563C407.322+442.49+407.421+443.235+407.62+443.798C407.925+444.657+408.445+445.086+409.181+445.086Z" opacity="1" fill="#000000"/>
<path d="M414.152+439.443L414.152+438.567C414.977+438.487+415.552+438.353+415.878+438.164C416.204+437.976+416.447+437.531+416.608+436.828L417.51+436.828L417.51+445.88L416.291+445.88L416.291+439.443L414.152+439.443Z" opacity="1" fill="#000000"/>
<path d="M423.654+436.79C424.831+436.79+425.681+437.275+426.206+438.244C426.612+438.993+426.815+440.019+426.815+441.322C426.815+442.558+426.631+443.58+426.263+444.388C425.73+445.548+424.858+446.127+423.648+446.127C422.556+446.127+421.743+445.653+421.21+444.705C420.766+443.914+420.544+442.852+420.544+441.519C420.544+440.486+420.677+439.6+420.944+438.859C421.443+437.48+422.346+436.79+423.654+436.79ZM423.641+445.086C424.234+445.086+424.706+444.824+425.057+444.299C425.408+443.775+425.584+442.797+425.584+441.367C425.584+440.334+425.457+439.485+425.203+438.818C424.949+438.152+424.456+437.818+423.724+437.818C423.051+437.818+422.559+438.135+422.248+438.767C421.937+439.4+421.782+440.332+421.782+441.563C421.782+442.49+421.881+443.235+422.08+443.798C422.385+444.657+422.905+445.086+423.641+445.086Z" opacity="1" fill="#000000"/>
<path d="M428.612+439.443L428.612+438.567C429.437+438.487+430.012+438.353+430.338+438.164C430.664+437.976+430.907+437.531+431.068+436.828L431.97+436.828L431.97+445.88L430.751+445.88L430.751+439.443L428.612+439.443Z" opacity="1" fill="#000000"/>
<path d="M438.114+436.79C439.29+436.79+440.141+437.275+440.666+438.244C441.072+438.993+441.275+440.019+441.275+441.322C441.275+442.558+441.091+443.58+440.723+444.388C440.19+445.548+439.318+446.127+438.108+446.127C437.016+446.127+436.203+445.653+435.67+444.705C435.226+443.914+435.004+442.852+435.004+441.519C435.004+440.486+435.137+439.6+435.404+438.859C435.903+437.48+436.806+436.79+438.114+436.79ZM438.101+445.086C438.694+445.086+439.166+444.824+439.517+444.299C439.868+443.775+440.044+442.797+440.044+441.367C440.044+440.334+439.917+439.485+439.663+438.818C439.409+438.152+438.916+437.818+438.184+437.818C437.511+437.818+437.019+438.135+436.708+438.767C436.397+439.4+436.242+440.332+436.242+441.563C436.242+442.49+436.341+443.235+436.54+443.798C436.845+444.657+437.365+445.086+438.101+445.086Z" opacity="1" fill="#000000"/>
</g>
</g>
</g>
</svg>
