<?xml version="1.0" encoding="UTF-8" standalone="no"?> <!-- Created with Vectornator for iOS (http://vectornator.io/) --><!DOCTYPE svg PUBLIC "-//W3C//DTD SVG 1.1//EN" "http://www.w3.org/Graphics/SVG/1.1/DTD/svg11.dtd">
<svg height="100%" style="fill-rule:nonzero;clip-rule:evenodd;stroke-linecap:round;stroke-linejoin:round;" xmlns:xlink="http://www.w3.org/1999/xlink" xmlns="http://www.w3.org/2000/svg" xml:space="preserve" width="100%" xmlns:vectornator="http://vectornator.io" version="1.1" viewBox="0 0 1024 1024">
<metadata>
<vectornator:setting key="DimensionsVisible" value="1"/>
<vectornator:setting key="PencilOnly" value="0"/>
<vectornator:setting key="SnapToPoints" value="0"/>
<vectornator:setting key="OutlineMode" value="0"/>
<vectornator:setting key="CMYKEnabledKey" value="0"/>
<vectornator:setting key="RulersVisible" value="1"/>
<vectornator:setting key="SnapToEdges" value="0"/>
<vectornator:setting key="GuidesVisible" value="1"/>
<vectornator:setting key="DisplayWhiteBackground" value="0"/>
<vectornator:setting key="doHistoryDisabled" value="0"/>
<vectornator:setting key="SnapToGuides" value="1"/>
<vectornator:setting key="TimeLapseWatermarkDisabled" value="0"/>
<vectornator:setting key="Units" value="Pixels"/>
<vectornator:setting key="DynamicGuides" value="0"/>
<vectornator:setting key="IsolateActiveLayer" value="0"/>
<vectornator:setting key="SnapToGrid" value="0"/>
</metadata>
<defs/>
<g id="Layer 1" vectornator:layerName="Layer 1">
<path d="M125.259+544.195C126.183+543.018+421.129+454.595+422.426+453.954C582.343+374.901+564.884+478.914+597.473+476.738C632.786+468.91+664.757+438.442+696.388+469.602C730.731+502.762+713.142+533.846+750.954+532.475C771.861+531.716+801.253+561.135+806.276+577.883C817.419+615.035+764.381+645.549+779.825+659.534C785.597+674.219+816.123+686.006+825.426+718.989C830.676+737.605+821.465+776.126+802.245+803.682C745.431+885.138+665.358+882.732+556.728+874.97C541.579+873.888+517.978+869.571+496.821+853.318" opacity="1" fill="#ffe0ce"/>
<path d="M442.647+602.542C442.647+580.129+461.233+561.96+484.16+561.96C507.087+561.96+525.673+580.129+525.673+602.542C525.673+624.955+507.087+643.124+484.16+643.124C461.233+643.124+442.647+624.955+442.647+602.542Z" opacity="1" fill="#d84343"/>
<path stroke="#000000" stroke-width="0.1" d="M495.225+563.652C488.914+582.566+489.178+583.131+482.868+602.046L515.929+606.061L525.031+607.166C526.08+603.305+525.503+596.191+524.157+591.402C520.43+578.138+508.243+566.195+495.225+563.652Z" fill="#05d7b7" stroke-linecap="round" opacity="1" stroke-linejoin="round"/>
<path d="M279.254+657.579L279.254+657.579C294.991+659.675+347.966+728.892+346.155+746.088L316.024+757.235C314.213+774.432+288.402+722.255+272.665+720.16L272.665+720.16C256.928+718.065+245.638+702.425+247.449+685.229L247.481+684.923C249.292+667.726+263.517+655.484+279.254+657.579Z" opacity="1" fill="#ae5252"/>
<path d="M266.383+654.016L269.349+654.411C286.643+656.714+299.004+674.347+296.956+693.796L296.956+693.796C294.908+713.245+279.228+727.145+261.933+724.842L258.968+724.447C241.673+722.144+232.905+685.549+231.361+685.062C229.816+684.575+231.361+685.062+231.361+685.062C233.408+665.613+249.089+651.713+266.383+654.016Z" opacity="1" fill="#ae5252"/>
<path d="M303.275+813.85L304.517+818.555C308.563+820.014+311.263+811.948+309.965+816.497L303.641+839.927L311.326+853.499C310.029+858.048+302.243+850.967+298.198+849.508L293.999+846.711C289.953+845.252+283.645+841.657+284.942+837.108L295.303+813.528C296.6+808.978+299.23+812.391+303.275+813.85Z" opacity="1" fill="#ebb58a"/>
<path d="M234.039+840.055L234.039+840.055C238.287+840.055+241.744+833.025+241.744+837.803L239.009+860.707L250.012+870.991C250.012+875.768+240.675+871.699+236.427+871.699L231.669+870.478C227.421+870.478+220.438+869.221+220.438+864.444L225.9+839.91C225.9+835.133+229.791+840.055+234.039+840.055Z" opacity="1" fill="#ebb58a"/>
<path d="M-322.665+943.556C-322.665+895.047-327.617+845.77-311.747+799.243" opacity="1" fill="#ae5252"/>
<path d="M251.613+840.291L221.958+844.532L231.62+683.714L286.595+704.633L251.613+840.291Z" opacity="1" fill="#ae5252"/>
<path d="M329.449+730.91L330.71+731.078C341.209+732.476+348.703+743.27+347.448+755.188L347.448+755.188C346.194+767.105+335.794+786.564+335.794+786.564L314.767+829.412C304.268+828.014+289.695+814.54+289.695+814.54L308.166+749.957C309.421+738.04+318.949+729.512+329.449+730.91Z" opacity="1" fill="#ae5252"/>
<path d="M279.487+848.582C279.487+848.582+278.429+848.518+277.84+845.489C277.251+842.46+277.123+841.646+278.35+837.834C279.494+834.281+280.257+831.18+283.41+831.812C284.747+831.601+294.826+845.419+299.074+847.713C301.108+848.992+304.61+850.721+306.894+851.54C311.866+852.474+309.363+850.233+310.591+850.766C318.315+852.231+314.148+866.291+307.186+862.23C306.357+861.874+304.699+861.161+304.699+861.161L297.552+857.72C297.552+857.72+290.057+854.148+289.1+852.414C287.641+849.769+288.66+845.855+287.101+846.608C286.531+846.883+286.041+849.729+284.355+850.721" opacity="1" fill="#ae5252"/>
<path d="M219.616+877.663C219.616+877.663+218.603+878.013+217.123+875.397C215.643+872.781+215.273+872.067+215.259+868.013C215.246+864.233+215.013+861.027+218.166+860.4C218.964+859.92+225.374+863.834+230.929+866.623C233.664+867.996+236.193+869.097+237.741+869.265C240.041+869.678+243.859+869.946+246.254+869.831C251.207+868.783+248.172+867.648+249.488+867.673C257.189+866.057+257.58+880.871+249.8+879.754C248.913+879.741+247.138+879.713+247.138+879.713L239.374+879.25C239.374+879.25+231.244+878.798+229.815+877.54C227.635+875.621+227.394+871.552+226.16+872.862C225.709+873.341+226.121+876.203+224.842+877.787" opacity="1" fill="#ae5252"/>
<path stroke="#000000" stroke-width="3.09192" d="M285.707+703.385L251.473+838.969" fill="none" stroke-linecap="round" opacity="1" stroke-linejoin="round"/>
<g opacity="1">
<path d="M340.068+620.818L340.068+620.818C336.684+616.328+329.49+622.635+333.482+618.829L357.218+603.552L358.204+596.243L359.793+592.833C368.406+580.31+376.373+581.617+368.355+592.279L372.705+598.923C376.09+603.413+375.46+605.578+371.468+609.384L366.71+613.082L354.474+620.303L346.432+629.534C342.439+633.34+343.453+625.308+340.068+620.818Z" opacity="1" fill="#ebb58a"/>
<path d="M225.795+677.531L225.795+677.531C227.853+672.119+222.446+664.31+227.259+666.624L247.197+687.062L253.451+684.785L256.873+684.859C270.685+687.923+273.207+696.523+261.142+693.224L257.802+700.571C255.744+705.983+253.74+706.317+248.928+704.003L243.86+700.871L230.342+695.202L221.707+687.829C216.895+685.515+223.737+682.943+225.795+677.531Z" opacity="1" fill="#ebb58a"/>
<path d="M242.934+579.977L290.534+579.977C300.195+579.977+308.027+589+308.027+600.131L308.027+621.544C308.027+628.044+302.571+635.035+302.475+639.04C302.382+642.947+293.351+641.441+290.534+641.698L242.934+641.698C233.273+641.698+225.442+632.674+225.442+621.544L225.442+600.131C225.442+589+233.273+579.977+242.934+579.977Z" opacity="1" fill="#ae5252"/>
<path d="M236.269+583.625L248.344+590.585C250.794+591.998+248.15+603.303+242.437+615.835L231.448+639.946C225.735+652.479+211.062+678.996+208.611+677.584L196.382+664.221C193.931+662.808+204.785+640.403+210.498+627.87L221.488+603.759C227.201+591.226+233.818+582.212+236.269+583.625Z" opacity="1" fill="#ae5252"/>
<path d="M282.133+589.854L293.064+580.814C295.282+578.979+303.096+586.689+310.515+598.035L324.789+619.861C332.209+631.206+336.426+641.891+334.207+643.726L323.276+652.766C321.058+654.601+313.244+646.891+305.825+635.546L291.55+613.72C284.131+602.374+279.914+591.689+282.133+589.854Z" opacity="1" fill="#ae5252"/>
<path d="M321.748+650.573L318.763+648.885L310.741+640.861C309.139+638.343+326.279+621.46+326.279+621.46L345.871+605.692C345.871+605.692+350.792+602.554+352.454+600.338L367.427+619.121C363.621+620.616+355.408+624.36+355.408+624.36L334.479+643.435C334.479+643.435+323.351+653.091+321.748+650.573Z" opacity="1" fill="#ae5252"/>
<path d="M246.205+676.989L232.041+697.939C230.422+700.445+225.221+692.909+215.09+684.63C215.09+684.63+197.676+666.041+199.294+663.536L204.464+648.429C206.082+645.923+228.928+663.213+228.928+663.213C239.059+671.492+247.824+674.484+246.205+676.989Z" opacity="1" fill="#ae5252"/>
<path stroke="#000000" stroke-width="3.09192" d="M239.18+624.315L238.591+625.349L220.627+656.894" fill="none" stroke-linecap="round" opacity="1" stroke-linejoin="round"/>
<path stroke="#000000" stroke-width="3.09192" d="M221.091+657.207L221.889+657.768L246.242+674.881" fill="none" stroke-linecap="round" opacity="1" stroke-linejoin="round"/>
<path stroke="#000000" stroke-width="3.09192" d="M211.749+658.493L220.96+656.033" fill="none" stroke-linecap="round" opacity="1" stroke-linejoin="round"/>
<path stroke="#000000" stroke-width="3.09192" d="M324.452+631.349L325.812+622.051" fill="none" stroke-linecap="round" opacity="1" stroke-linejoin="round"/>
<path stroke="#000000" stroke-width="3.09192" d="M325.816+620.84L352.125+601.979" fill="none" stroke-linecap="round" opacity="1" stroke-linejoin="round"/>
<path stroke="#000000" stroke-width="3.09192" d="M304.555+605.87C304.266+608.028+303.694+609.251+304.208+611.086C304.219+611.127+306.362+614.544+306.941+615.644C307.977+617.612+308.077+619.499+308.077+621.742C308.077+622.238+307.824+623.701+307.706+624.179C307.468+625.145+306.603+627.629+305.574+629.335C304.869+630.505+304.144+631.666+303.556+632.941C302.998+634.15+301.556+638.749+301.556+639.801" fill="none" stroke-linecap="round" opacity="1" stroke-linejoin="round"/>
<path d="M265.957+520.799L265.957+520.799C275.847+520.799+283.864+529.815+283.864+540.936L283.864+543.189C283.864+554.311+275.847+563.327+265.957+563.327L265.957+563.327C256.068+563.327+248.051+554.311+248.051+543.189L248.051+540.936C248.051+529.815+256.068+520.799+265.957+520.799Z" opacity="1" fill="#ebb58a"/>
<path d="M247.564+514.78L247.564+514.78C254.626+514.78+260.35+520.262+260.35+527.025L260.35+528.395C260.35+535.158+254.626+540.64+247.564+540.64L247.564+540.64C240.503+540.64+234.779+535.158+234.779+528.395L234.779+527.025C234.779+520.262+240.503+514.78+247.564+514.78Z" opacity="1" fill="#492b2b"/>
<path d="M265.147+521.02L265.147+521.02C274.577+521.02+283.382+528.729+283.382+535.492L283.577+537.482C282.051+539.647+272.082+533.149+272.082+533.149C272.082+533.149+258.304+538.234+255.873+538.805C252.497+539.599+248.519+544.529+248.249+544.24C247.511+543.449+248.072+537.801+248.072+534.635L248.072+533.265C248.072+526.502+255.716+521.02+265.147+521.02Z" opacity="1" fill="#492b2b"/>
</g>
<path stroke="#737373" stroke-width="3.09192" d="M577.219+568.005L677.138+568.005L677.138+568.005L677.138+643.137L677.138+643.137L577.219+643.137L577.219+643.137L577.219+568.005L577.219+568.005Z" fill="none" stroke-linecap="round" opacity="1" stroke-linejoin="round"/>
<path stroke="#000000" stroke-width="3.09192" d="M451.082+681.633L450.703+755.098" fill="none" stroke-linecap="round" opacity="1" stroke-linejoin="round"/>
<path stroke="#000000" stroke-width="3.09192" d="M682.111+756.03L450.61+756.023" fill="none" stroke-linecap="round" opacity="1" stroke-linejoin="round"/>
<path stroke="#737373" stroke-width="3.09192" d="M596.111+643.353L596.522+568.627" fill="none" stroke-linecap="round" opacity="1" stroke-linejoin="round"/>
<path stroke="#737373" stroke-width="3.09192" d="M617.377+641.758L617.724+569.103" fill="none" stroke-linecap="round" opacity="1" stroke-linejoin="round"/>
<path stroke="#737373" stroke-width="3.09192" d="M637.614+643.082L638.015+568.82" fill="none" stroke-linecap="round" opacity="1" stroke-linejoin="round"/>
<path stroke="#737373" stroke-width="3.09192" d="M658.197+641.709L658.691+569.005" fill="none" stroke-linecap="round" opacity="1" stroke-linejoin="round"/>
<path stroke="#737373" stroke-width="3.09192" d="M577.551+633.685L676.144+633.788" fill="none" stroke-linecap="round" opacity="1" stroke-linejoin="round"/>
<path stroke="#737373" stroke-width="3.09192" d="M578.002+623.987L674.965+624.089" fill="none" stroke-linecap="round" opacity="1" stroke-linejoin="round"/>
<path stroke="#737373" stroke-width="3.09192" d="M577.824+614.749L676.416+614.852" fill="none" stroke-linecap="round" opacity="1" stroke-linejoin="round"/>
<path stroke="#737373" stroke-width="3.09192" d="M576.777+605.501L675.37+605.604" fill="none" stroke-linecap="round" opacity="1" stroke-linejoin="round"/>
<path stroke="#737373" stroke-width="3.09192" d="M578.269+596.103L676.862+596.206" fill="none" stroke-linecap="round" opacity="1" stroke-linejoin="round"/>
<path stroke="#737373" stroke-width="3.09192" d="M577.463+586.707L676.056+586.81" fill="none" stroke-linecap="round" opacity="1" stroke-linejoin="round"/>
<path stroke="#737373" stroke-width="3.09192" d="M577.958+577.295L676.551+577.398" fill="none" stroke-linecap="round" opacity="1" stroke-linejoin="round"/>
<path stroke="#05d1b2" stroke-width="2.13691" d="M461.372+692.034C469.228+690.125+469.76+690.659+474.999+696.36C476.654+698.16+481.662+700.018+482.661+702.345C484.464+706.548+484.562+715.889+489.522+718.501C489.956+718.73+492.312+712.536+494.977+713.606C498.22+714.909+498.51+720.761+502.395+722.472C505.21+723.712+509.473+722.274+512.452+722.691C518.427+723.528+523.998+727.172+530.008+728.283C533.6+728.946+545.648+729.437+548.468+728.436C550.545+727.699+555.857+720.348+558.898+722.042C562.516+724.057+561.92+730.975+565.098+733.203C567.256+734.717+581.524+736.561+584.085+736.12C588.765+735.314+588.697+720.695+588.697+717.207C588.697+715.923+588.697+714.639+588.697+713.355C588.697+712.471+588.237+709.949+588.697+710.704C593.187+718.08+594.495+726.617+598.584+734.052C600.178+736.951+602.635+732.413+604.486+734.021C606.391+735.676+606.871+738.552+608.831+740.023C612.392+742.693+620.515+741.62+624.845+742.943C627.389+743.72+629.305+747.033+631.423+747.563C632.839+747.918+632.823+745.507+634.446+745.507C635.596+745.507+640.71+746.899+641.285+746.402C646.171+742.173+666.226+740.477+672.286+743.502" fill="none" stroke-linecap="round" opacity="1" stroke-linejoin="round"/>
<g opacity="1">
<path stroke="#000000" stroke-width="0.415093" d="M495.167+564.829L483.3+601.267" fill="#662f2f" stroke-linecap="round" opacity="1" stroke-linejoin="round"/>
<path stroke="#000000" stroke-width="0.415093" d="M524.865+607.413L482.656+602.268" fill="#662f2f" stroke-linecap="round" opacity="1" stroke-linejoin="round"/>
</g>
<path stroke="#000000" stroke-width="0.1" d="M471.23+602.526C471.23+594.927+477.495+588.767+485.225+588.767C492.954+588.767+499.22+594.927+499.22+602.526C499.22+610.125+492.954+616.286+485.225+616.286C477.495+616.286+471.23+610.125+471.23+602.526Z" fill="#ffffff" stroke-linecap="round" opacity="1" stroke-linejoin="round"/>
<g opacity="1">
<path d="M626.982+493.716L626.982+492.84C627.807+492.759+628.383+492.625+628.709+492.436C629.035+492.248+629.278+491.803+629.439+491.1L630.34+491.1L630.34+500.152L629.121+500.152L629.121+493.716L626.982+493.716Z" opacity="1" fill="#000000"/>
<path d="M636.485+491.062C637.661+491.062+638.512+491.547+639.036+492.516C639.443+493.265+639.646+494.291+639.646+495.594C639.646+496.83+639.462+497.852+639.094+498.66C638.56+499.82+637.689+500.4+636.478+500.4C635.387+500.4+634.574+499.926+634.041+498.978C633.597+498.186+633.374+497.124+633.374+495.791C633.374+494.759+633.508+493.872+633.774+493.132C634.274+491.752+635.177+491.062+636.485+491.062ZM636.472+499.359C637.064+499.359+637.536+499.096+637.888+498.571C638.239+498.047+638.414+497.069+638.414+495.639C638.414+494.606+638.287+493.757+638.034+493.09C637.78+492.424+637.287+492.091+636.555+492.091C635.882+492.091+635.39+492.407+635.079+493.039C634.768+493.672+634.612+494.604+634.612+495.836C634.612+496.762+634.712+497.507+634.91+498.07C635.215+498.929+635.736+499.359+636.472+499.359Z" opacity="1" fill="#000000"/>
<path d="M641.442+493.716L641.442+492.84C642.267+492.759+642.843+492.625+643.169+492.436C643.495+492.248+643.738+491.803+643.899+491.1L644.8+491.1L644.8+500.152L643.581+500.152L643.581+493.716L641.442+493.716Z" opacity="1" fill="#000000"/>
<path d="M650.945+491.062C652.121+491.062+652.972+491.547+653.496+492.516C653.903+493.265+654.106+494.291+654.106+495.594C654.106+496.83+653.922+497.852+653.554+498.66C653.02+499.82+652.149+500.4+650.938+500.4C649.847+500.4+649.034+499.926+648.501+498.978C648.056+498.186+647.834+497.124+647.834+495.791C647.834+494.759+647.968+493.872+648.234+493.132C648.734+491.752+649.637+491.062+650.945+491.062ZM650.932+499.359C651.524+499.359+651.996+499.096+652.347+498.571C652.699+498.047+652.874+497.069+652.874+495.639C652.874+494.606+652.747+493.757+652.493+493.09C652.24+492.424+651.747+492.091+651.014+492.091C650.342+492.091+649.85+492.407+649.539+493.039C649.228+493.672+649.072+494.604+649.072+495.836C649.072+496.762+649.172+497.507+649.37+498.07C649.675+498.929+650.196+499.359+650.932+499.359Z" opacity="1" fill="#000000"/>
<path d="M655.902+493.716L655.902+492.84C656.727+492.759+657.303+492.625+657.629+492.436C657.955+492.248+658.198+491.803+658.359+491.1L659.26+491.1L659.26+500.152L658.041+500.152L658.041+493.716L655.902+493.716Z" opacity="1" fill="#000000"/>
<path d="M665.405+491.062C666.581+491.062+667.432+491.547+667.956+492.516C668.363+493.265+668.566+494.291+668.566+495.594C668.566+496.83+668.382+497.852+668.014+498.66C667.48+499.82+666.609+500.4+665.398+500.4C664.306+500.4+663.494+499.926+662.961+498.978C662.516+498.186+662.294+497.124+662.294+495.791C662.294+494.759+662.428+493.872+662.694+493.132C663.194+491.752+664.097+491.062+665.405+491.062ZM665.392+499.359C665.984+499.359+666.456+499.096+666.807+498.571C667.159+498.047+667.334+497.069+667.334+495.639C667.334+494.606+667.207+493.757+666.953+493.09C666.7+492.424+666.207+492.091+665.474+492.091C664.802+492.091+664.31+492.407+663.999+493.039C663.688+493.672+663.532+494.604+663.532+495.836C663.532+496.762+663.632+497.507+663.83+498.07C664.135+498.929+664.656+499.359+665.392+499.359Z" opacity="1" fill="#000000"/>
<path d="M670.362+493.716L670.362+492.84C671.187+492.759+671.763+492.625+672.089+492.436C672.415+492.248+672.658+491.803+672.819+491.1L673.72+491.1L673.72+500.152L672.501+500.152L672.501+493.716L670.362+493.716Z" opacity="1" fill="#000000"/>
<path d="M679.865+491.062C681.041+491.062+681.892+491.547+682.416+492.516C682.823+493.265+683.026+494.291+683.026+495.594C683.026+496.83+682.842+497.852+682.473+498.66C681.94+499.82+681.069+500.4+679.858+500.4C678.766+500.4+677.954+499.926+677.421+498.978C676.976+498.186+676.754+497.124+676.754+495.791C676.754+494.759+676.888+493.872+677.154+493.132C677.653+491.752+678.557+491.062+679.865+491.062ZM679.852+499.359C680.444+499.359+680.916+499.096+681.267+498.571C681.619+498.047+681.794+497.069+681.794+495.639C681.794+494.606+681.667+493.757+681.413+493.09C681.16+492.424+680.667+492.091+679.934+492.091C679.262+492.091+678.77+492.407+678.459+493.039C678.148+493.672+677.992+494.604+677.992+495.836C677.992+496.762+678.091+497.507+678.29+498.07C678.595+498.929+679.116+499.359+679.852+499.359Z" opacity="1" fill="#000000"/>
<path d="M684.822+493.716L684.822+492.84C685.647+492.759+686.223+492.625+686.549+492.436C686.875+492.248+687.118+491.803+687.279+491.1L688.18+491.1L688.18+500.152L686.961+500.152L686.961+493.716L684.822+493.716Z" opacity="1" fill="#000000"/>
<path d="M692.052+493.716L692.052+492.84C692.877+492.759+693.453+492.625+693.779+492.436C694.104+492.248+694.348+491.803+694.509+491.1L695.41+491.1L695.41+500.152L694.191+500.152L694.191+493.716L692.052+493.716Z" opacity="1" fill="#000000"/>
<path d="M701.555+491.062C702.731+491.062+703.582+491.547+704.106+492.516C704.513+493.265+704.716+494.291+704.716+495.594C704.716+496.83+704.532+497.852+704.163+498.66C703.63+499.82+702.758+500.4+701.548+500.4C700.456+500.4+699.644+499.926+699.111+498.978C698.666+498.186+698.444+497.124+698.444+495.791C698.444+494.759+698.577+493.872+698.844+493.132C699.343+491.752+700.247+491.062+701.555+491.062ZM701.542+499.359C702.134+499.359+702.606+499.096+702.957+498.571C703.309+498.047+703.484+497.069+703.484+495.639C703.484+494.606+703.357+493.757+703.103+493.09C702.849+492.424+702.356+492.091+701.624+492.091C700.952+492.091+700.46+492.407+700.149+493.039C699.837+493.672+699.682+494.604+699.682+495.836C699.682+496.762+699.781+497.507+699.98+498.07C700.285+498.929+700.806+499.359+701.542+499.359Z" opacity="1" fill="#000000"/>
<path d="M706.512+493.716L706.512+492.84C707.337+492.759+707.913+492.625+708.239+492.436C708.564+492.248+708.808+491.803+708.969+491.1L709.87+491.1L709.87+500.152L708.651+500.152L708.651+493.716L706.512+493.716Z" opacity="1" fill="#000000"/>
<path d="M716.014+491.062C717.191+491.062+718.042+491.547+718.566+492.516C718.972+493.265+719.176+494.291+719.176+495.594C719.176+496.83+718.992+497.852+718.623+498.66C718.09+499.82+717.218+500.4+716.008+500.4C714.916+500.4+714.104+499.926+713.571+498.978C713.126+498.186+712.904+497.124+712.904+495.791C712.904+494.759+713.037+493.872+713.304+493.132C713.803+491.752+714.707+491.062+716.014+491.062ZM716.002+499.359C716.594+499.359+717.066+499.096+717.417+498.571C717.769+498.047+717.944+497.069+717.944+495.639C717.944+494.606+717.817+493.757+717.563+493.09C717.309+492.424+716.816+492.091+716.084+492.091C715.411+492.091+714.92+492.407+714.608+493.039C714.297+493.672+714.142+494.604+714.142+495.836C714.142+496.762+714.241+497.507+714.44+498.07C714.745+498.929+715.265+499.359+716.002+499.359Z" opacity="1" fill="#000000"/>
<path d="M720.972+493.716L720.972+492.84C721.797+492.759+722.373+492.625+722.699+492.436C723.024+492.248+723.268+491.803+723.429+491.1L724.33+491.1L724.33+500.152L723.111+500.152L723.111+493.716L720.972+493.716Z" opacity="1" fill="#000000"/>
<path d="M728.202+493.716L728.202+492.84C729.027+492.759+729.603+492.625+729.929+492.436C730.254+492.248+730.498+491.803+730.659+491.1L731.56+491.1L731.56+500.152L730.341+500.152L730.341+493.716L728.202+493.716Z" opacity="1" fill="#000000"/>
<path d="M737.704+491.062C738.881+491.062+739.731+491.547+740.256+492.516C740.662+493.265+740.866+494.291+740.866+495.594C740.866+496.83+740.681+497.852+740.313+498.66C739.78+499.82+738.908+500.4+737.698+500.4C736.606+500.4+735.794+499.926+735.261+498.978C734.816+498.186+734.594+497.124+734.594+495.791C734.594+494.759+734.727+493.872+734.994+493.132C735.493+491.752+736.397+491.062+737.704+491.062ZM737.692+499.359C738.284+499.359+738.756+499.096+739.107+498.571C739.459+498.047+739.634+497.069+739.634+495.639C739.634+494.606+739.507+493.757+739.253+493.09C738.999+492.424+738.506+492.091+737.774+492.091C737.101+492.091+736.609+492.407+736.298+493.039C735.987+493.672+735.832+494.604+735.832+495.836C735.832+496.762+735.931+497.507+736.13+498.07C736.435+498.929+736.955+499.359+737.692+499.359Z" opacity="1" fill="#000000"/>
<path d="M742.662+493.716L742.662+492.84C743.487+492.759+744.063+492.625+744.389+492.436C744.714+492.248+744.958+491.803+745.118+491.1L746.02+491.1L746.02+500.152L744.801+500.152L744.801+493.716L742.662+493.716Z" opacity="1" fill="#000000"/>
<path d="M752.164+491.062C753.341+491.062+754.191+491.547+754.716+492.516C755.122+493.265+755.326+494.291+755.326+495.594C755.326+496.83+755.141+497.852+754.773+498.66C754.24+499.82+753.368+500.4+752.158+500.4C751.066+500.4+750.254+499.926+749.721+498.978C749.276+498.186+749.054+497.124+749.054+495.791C749.054+494.759+749.187+493.872+749.454+493.132C749.953+491.752+750.857+491.062+752.164+491.062ZM752.152+499.359C752.744+499.359+753.216+499.096+753.567+498.571C753.918+498.047+754.094+497.069+754.094+495.639C754.094+494.606+753.967+493.757+753.713+493.09C753.459+492.424+752.966+492.091+752.234+492.091C751.561+492.091+751.069+492.407+750.758+493.039C750.447+493.672+750.292+494.604+750.292+495.836C750.292+496.762+750.391+497.507+750.59+498.07C750.895+498.929+751.415+499.359+752.152+499.359Z" opacity="1" fill="#000000"/>
<path d="M757.122+493.716L757.122+492.84C757.947+492.759+758.523+492.625+758.848+492.436C759.174+492.248+759.418+491.803+759.578+491.1L760.48+491.1L760.48+500.152L759.261+500.152L759.261+493.716L757.122+493.716Z" opacity="1" fill="#000000"/>
<path d="M766.624+491.062C767.801+491.062+768.651+491.547+769.176+492.516C769.582+493.265+769.785+494.291+769.785+495.594C769.785+496.83+769.601+497.852+769.233+498.66C768.7+499.82+767.828+500.4+766.618+500.4C765.526+500.4+764.714+499.926+764.181+498.978C763.736+498.186+763.514+497.124+763.514+495.791C763.514+494.759+763.647+493.872+763.914+493.132C764.413+491.752+765.317+491.062+766.624+491.062ZM766.612+499.359C767.204+499.359+767.676+499.096+768.027+498.571C768.378+498.047+768.554+497.069+768.554+495.639C768.554+494.606+768.427+493.757+768.173+493.09C767.919+492.424+767.426+492.091+766.694+492.091C766.021+492.091+765.529+492.407+765.218+493.039C764.907+493.672+764.752+494.604+764.752+495.836C764.752+496.762+764.851+497.507+765.05+498.07C765.355+498.929+765.875+499.359+766.612+499.359Z" opacity="1" fill="#000000"/>
</g>
<g opacity="1">
<path d="M375.306+841.29L375.306+840.414C376.131+840.334+376.707+840.199+377.032+840.011C377.358+839.823+377.602+839.377+377.762+838.675L378.664+838.675L378.664+847.726L377.445+847.726L377.445+841.29L375.306+841.29Z" opacity="1" fill="#000000"/>
<path d="M384.808+838.637C385.985+838.637+386.835+839.121+387.36+840.09C387.766+840.839+387.969+841.865+387.969+843.169C387.969+844.405+387.785+845.426+387.417+846.235C386.884+847.394+386.012+847.974+384.802+847.974C383.71+847.974+382.898+847.5+382.364+846.552C381.92+845.761+381.698+844.699+381.698+843.366C381.698+842.333+381.831+841.447+382.098+840.706C382.597+839.326+383.501+838.637+384.808+838.637ZM384.796+846.933C385.388+846.933+385.86+846.671+386.211+846.146C386.562+845.621+386.738+844.644+386.738+843.213C386.738+842.181+386.611+841.331+386.357+840.665C386.103+839.998+385.61+839.665+384.878+839.665C384.205+839.665+383.713+839.981+383.402+840.614C383.091+841.247+382.936+842.179+382.936+843.41C382.936+844.337+383.035+845.082+383.234+845.644C383.539+846.503+384.059+846.933+384.796+846.933Z" opacity="1" fill="#000000"/>
<path d="M389.766+841.29L389.766+840.414C390.591+840.334+391.167+840.199+391.492+840.011C391.818+839.823+392.062+839.377+392.222+838.675L393.124+838.675L393.124+847.726L391.905+847.726L391.905+841.29L389.766+841.29Z" opacity="1" fill="#000000"/>
<path d="M399.268+838.637C400.445+838.637+401.295+839.121+401.82+840.09C402.226+840.839+402.429+841.865+402.429+843.169C402.429+844.405+402.245+845.426+401.877+846.235C401.344+847.394+400.472+847.974+399.262+847.974C398.17+847.974+397.358+847.5+396.824+846.552C396.38+845.761+396.158+844.699+396.158+843.366C396.158+842.333+396.291+841.447+396.558+840.706C397.057+839.326+397.961+838.637+399.268+838.637ZM399.256+846.933C399.848+846.933+400.32+846.671+400.671+846.146C401.022+845.621+401.198+844.644+401.198+843.213C401.198+842.181+401.071+841.331+400.817+840.665C400.563+839.998+400.07+839.665+399.338+839.665C398.665+839.665+398.173+839.981+397.862+840.614C397.551+841.247+397.396+842.179+397.396+843.41C397.396+844.337+397.495+845.082+397.694+845.644C397.999+846.503+398.519+846.933+399.256+846.933Z" opacity="1" fill="#000000"/>
<path d="M404.226+841.29L404.226+840.414C405.051+840.334+405.627+840.199+405.952+840.011C406.278+839.823+406.522+839.377+406.682+838.675L407.584+838.675L407.584+847.726L406.365+847.726L406.365+841.29L404.226+841.29Z" opacity="1" fill="#000000"/>
<path d="M413.728+838.637C414.905+838.637+415.755+839.121+416.28+840.09C416.686+840.839+416.889+841.865+416.889+843.169C416.889+844.405+416.705+845.426+416.337+846.235C415.804+847.394+414.932+847.974+413.722+847.974C412.63+847.974+411.818+847.5+411.284+846.552C410.84+845.761+410.618+844.699+410.618+843.366C410.618+842.333+410.751+841.447+411.018+840.706C411.517+839.326+412.421+838.637+413.728+838.637ZM413.716+846.933C414.308+846.933+414.78+846.671+415.131+846.146C415.482+845.621+415.658+844.644+415.658+843.213C415.658+842.181+415.531+841.331+415.277+840.665C415.023+839.998+414.53+839.665+413.798+839.665C413.125+839.665+412.633+839.981+412.322+840.614C412.011+841.247+411.856+842.179+411.856+843.41C411.856+844.337+411.955+845.082+412.154+845.644C412.459+846.503+412.979+846.933+413.716+846.933Z" opacity="1" fill="#000000"/>
<path d="M418.686+841.29L418.686+840.414C419.511+840.334+420.086+840.199+420.412+840.011C420.738+839.823+420.981+839.377+421.142+838.675L422.044+838.675L422.044+847.726L420.825+847.726L420.825+841.29L418.686+841.29Z" opacity="1" fill="#000000"/>
<path d="M428.188+838.637C429.365+838.637+430.215+839.121+430.74+840.09C431.146+840.839+431.349+841.865+431.349+843.169C431.349+844.405+431.165+845.426+430.797+846.235C430.264+847.394+429.392+847.974+428.182+847.974C427.09+847.974+426.278+847.5+425.744+846.552C425.3+845.761+425.078+844.699+425.078+843.366C425.078+842.333+425.211+841.447+425.478+840.706C425.977+839.326+426.881+838.637+428.188+838.637ZM428.175+846.933C428.768+846.933+429.24+846.671+429.591+846.146C429.942+845.621+430.118+844.644+430.118+843.213C430.118+842.181+429.991+841.331+429.737+840.665C429.483+839.998+428.99+839.665+428.258+839.665C427.585+839.665+427.093+839.981+426.782+840.614C426.471+841.247+426.316+842.179+426.316+843.41C426.316+844.337+426.415+845.082+426.614+845.644C426.919+846.503+427.439+846.933+428.175+846.933Z" opacity="1" fill="#000000"/>
<path d="M433.146+841.29L433.146+840.414C433.971+840.334+434.546+840.199+434.872+840.011C435.198+839.823+435.441+839.377+435.602+838.675L436.504+838.675L436.504+847.726L435.285+847.726L435.285+841.29L433.146+841.29Z" opacity="1" fill="#000000"/>
<path d="M440.376+841.29L440.376+840.414C441.201+840.334+441.776+840.199+442.102+840.011C442.428+839.823+442.671+839.377+442.832+838.675L443.734+838.675L443.734+847.726L442.515+847.726L442.515+841.29L440.376+841.29Z" opacity="1" fill="#000000"/>
<path d="M449.878+838.637C451.055+838.637+451.905+839.121+452.43+840.09C452.836+840.839+453.039+841.865+453.039+843.169C453.039+844.405+452.855+845.426+452.487+846.235C451.954+847.394+451.082+847.974+449.872+847.974C448.78+847.974+447.967+847.5+447.434+846.552C446.99+845.761+446.768+844.699+446.768+843.366C446.768+842.333+446.901+841.447+447.168+840.706C447.667+839.326+448.571+838.637+449.878+838.637ZM449.865+846.933C450.458+846.933+450.93+846.671+451.281+846.146C451.632+845.621+451.808+844.644+451.808+843.213C451.808+842.181+451.681+841.331+451.427+840.665C451.173+839.998+450.68+839.665+449.948+839.665C449.275+839.665+448.783+839.981+448.472+840.614C448.161+841.247+448.006+842.179+448.006+843.41C448.006+844.337+448.105+845.082+448.304+845.644C448.609+846.503+449.129+846.933+449.865+846.933Z" opacity="1" fill="#000000"/>
<path d="M454.836+841.29L454.836+840.414C455.661+840.334+456.236+840.199+456.562+840.011C456.888+839.823+457.131+839.377+457.292+838.675L458.194+838.675L458.194+847.726L456.975+847.726L456.975+841.29L454.836+841.29Z" opacity="1" fill="#000000"/>
<path d="M464.338+838.637C465.515+838.637+466.365+839.121+466.89+840.09C467.296+840.839+467.499+841.865+467.499+843.169C467.499+844.405+467.315+845.426+466.947+846.235C466.414+847.394+465.542+847.974+464.332+847.974C463.24+847.974+462.427+847.5+461.894+846.552C461.45+845.761+461.228+844.699+461.228+843.366C461.228+842.333+461.361+841.447+461.628+840.706C462.127+839.326+463.03+838.637+464.338+838.637ZM464.325+846.933C464.918+846.933+465.39+846.671+465.741+846.146C466.092+845.621+466.268+844.644+466.268+843.213C466.268+842.181+466.141+841.331+465.887+840.665C465.633+839.998+465.14+839.665+464.408+839.665C463.735+839.665+463.243+839.981+462.932+840.614C462.621+841.247+462.466+842.179+462.466+843.41C462.466+844.337+462.565+845.082+462.764+845.644C463.069+846.503+463.589+846.933+464.325+846.933Z" opacity="1" fill="#000000"/>
<path d="M469.296+841.29L469.296+840.414C470.121+840.334+470.696+840.199+471.022+840.011C471.348+839.823+471.591+839.377+471.752+838.675L472.654+838.675L472.654+847.726L471.435+847.726L471.435+841.29L469.296+841.29Z" opacity="1" fill="#000000"/>
<path d="M476.526+841.29L476.526+840.414C477.351+840.334+477.926+840.199+478.252+840.011C478.578+839.823+478.821+839.377+478.982+838.675L479.884+838.675L479.884+847.726L478.665+847.726L478.665+841.29L476.526+841.29Z" opacity="1" fill="#000000"/>
<path d="M486.028+838.637C487.204+838.637+488.055+839.121+488.58+840.09C488.986+840.839+489.189+841.865+489.189+843.169C489.189+844.405+489.005+845.426+488.637+846.235C488.104+847.394+487.232+847.974+486.022+847.974C484.93+847.974+484.117+847.5+483.584+846.552C483.14+845.761+482.918+844.699+482.918+843.366C482.918+842.333+483.051+841.447+483.318+840.706C483.817+839.326+484.72+838.637+486.028+838.637ZM486.015+846.933C486.608+846.933+487.08+846.671+487.431+846.146C487.782+845.621+487.958+844.644+487.958+843.213C487.958+842.181+487.831+841.331+487.577+840.665C487.323+839.998+486.83+839.665+486.098+839.665C485.425+839.665+484.933+839.981+484.622+840.614C484.311+841.247+484.155+842.179+484.155+843.41C484.155+844.337+484.255+845.082+484.454+845.644C484.759+846.503+485.279+846.933+486.015+846.933Z" opacity="1" fill="#000000"/>
<path d="M490.986+841.29L490.986+840.414C491.811+840.334+492.386+840.199+492.712+840.011C493.038+839.823+493.281+839.377+493.442+838.675L494.343+838.675L494.343+847.726L493.125+847.726L493.125+841.29L490.986+841.29Z" opacity="1" fill="#000000"/>
<path d="M500.488+838.637C501.664+838.637+502.515+839.121+503.04+840.09C503.446+840.839+503.649+841.865+503.649+843.169C503.649+844.405+503.465+845.426+503.097+846.235C502.564+847.394+501.692+847.974+500.482+847.974C499.39+847.974+498.577+847.5+498.044+846.552C497.6+845.761+497.378+844.699+497.378+843.366C497.378+842.333+497.511+841.447+497.778+840.706C498.277+839.326+499.18+838.637+500.488+838.637ZM500.475+846.933C501.068+846.933+501.54+846.671+501.891+846.146C502.242+845.621+502.418+844.644+502.418+843.213C502.418+842.181+502.291+841.331+502.037+840.665C501.783+839.998+501.29+839.665+500.558+839.665C499.885+839.665+499.393+839.981+499.082+840.614C498.771+841.247+498.615+842.179+498.615+843.41C498.615+844.337+498.715+845.082+498.914+845.644C499.218+846.503+499.739+846.933+500.475+846.933Z" opacity="1" fill="#000000"/>
<path d="M505.446+841.29L505.446+840.414C506.271+840.334+506.846+840.199+507.172+840.011C507.498+839.823+507.741+839.377+507.902+838.675L508.803+838.675L508.803+847.726L507.585+847.726L507.585+841.29L505.446+841.29Z" opacity="1" fill="#000000"/>
<path d="M514.948+838.637C516.124+838.637+516.975+839.121+517.5+840.09C517.906+840.839+518.109+841.865+518.109+843.169C518.109+844.405+517.925+845.426+517.557+846.235C517.024+847.394+516.152+847.974+514.942+847.974C513.85+847.974+513.037+847.5+512.504+846.552C512.06+845.761+511.838+844.699+511.838+843.366C511.838+842.333+511.971+841.447+512.238+840.706C512.737+839.326+513.64+838.637+514.948+838.637ZM514.935+846.933C515.528+846.933+516+846.671+516.351+846.146C516.702+845.621+516.878+844.644+516.878+843.213C516.878+842.181+516.751+841.331+516.497+840.665C516.243+839.998+515.75+839.665+515.018+839.665C514.345+839.665+513.853+839.981+513.542+840.614C513.231+841.247+513.075+842.179+513.075+843.41C513.075+844.337+513.175+845.082+513.374+845.644C513.678+846.503+514.199+846.933+514.935+846.933Z" opacity="1" fill="#000000"/>
</g>
</g>
</svg>
